<?xml version="1.0" encoding="utf-8" standalone="no"?>
<!DOCTYPE svg PUBLIC "-//W3C//DTD SVG 1.1//EN"
  "http://www.w3.org/Graphics/SVG/1.1/DTD/svg11.dtd">
<!-- Created with matplotlib (http://matplotlib.org/) -->
<svg height="681pt" version="1.1" viewBox="0 0 1402 681" width="1402pt" xmlns="http://www.w3.org/2000/svg" xmlns:xlink="http://www.w3.org/1999/xlink">
 <defs>
  <style type="text/css">
*{stroke-linecap:butt;stroke-linejoin:round;}
  </style>
 </defs>
 <g id="figure_1">
  <g id="patch_1">
   <path d="M 0 681.251913 
L 1402.218844 681.251913 
L 1402.218844 0 
L 0 0 
z
" style="fill:#ffffff;"/>
  </g>
  <g id="axes_1">
   <g id="patch_2">
    <path d="M 79.903458 243.356767 
L 687.978844 243.356767 
L 687.978844 30.37875 
L 79.903458 30.37875 
z
" style="fill:#eaeaf2;"/>
   </g>
   <g id="matplotlib.axis_1">
    <g id="xtick_1">
     <g id="line2d_1"/>
     <g id="text_1">
      <!-- 2015-09 -->
      <defs>
       <path d="M 50.34375 8.453125 
L 50.34375 0 
L 3.03125 0 
Q 2.9375 3.171875 4.046875 6.109375 
Q 5.859375 10.9375 9.828125 15.625 
Q 13.8125 20.3125 21.34375 26.46875 
Q 33.015625 36.03125 37.109375 41.625 
Q 41.21875 47.21875 41.21875 52.203125 
Q 41.21875 57.421875 37.46875 61 
Q 33.734375 64.59375 27.734375 64.59375 
Q 21.390625 64.59375 17.578125 60.78125 
Q 13.765625 56.984375 13.71875 50.25 
L 4.6875 51.171875 
Q 5.609375 61.28125 11.65625 66.578125 
Q 17.71875 71.875 27.9375 71.875 
Q 38.234375 71.875 44.234375 66.15625 
Q 50.25 60.453125 50.25 52 
Q 50.25 47.703125 48.484375 43.546875 
Q 46.734375 39.40625 42.65625 34.8125 
Q 38.578125 30.21875 29.109375 22.21875 
Q 21.1875 15.578125 18.9375 13.203125 
Q 16.703125 10.84375 15.234375 8.453125 
z
" id="ArialMT-32"/>
       <path d="M 4.15625 35.296875 
Q 4.15625 48 6.765625 55.734375 
Q 9.375 63.484375 14.515625 67.671875 
Q 19.671875 71.875 27.484375 71.875 
Q 33.25 71.875 37.59375 69.546875 
Q 41.9375 67.234375 44.765625 62.859375 
Q 47.609375 58.5 49.21875 52.21875 
Q 50.828125 45.953125 50.828125 35.296875 
Q 50.828125 22.703125 48.234375 14.96875 
Q 45.65625 7.234375 40.5 3 
Q 35.359375 -1.21875 27.484375 -1.21875 
Q 17.140625 -1.21875 11.234375 6.203125 
Q 4.15625 15.140625 4.15625 35.296875 
z
M 13.1875 35.296875 
Q 13.1875 17.671875 17.3125 11.828125 
Q 21.4375 6 27.484375 6 
Q 33.546875 6 37.671875 11.859375 
Q 41.796875 17.71875 41.796875 35.296875 
Q 41.796875 52.984375 37.671875 58.78125 
Q 33.546875 64.59375 27.390625 64.59375 
Q 21.34375 64.59375 17.71875 59.46875 
Q 13.1875 52.9375 13.1875 35.296875 
z
" id="ArialMT-30"/>
       <path d="M 37.25 0 
L 28.46875 0 
L 28.46875 56 
Q 25.296875 52.984375 20.140625 49.953125 
Q 14.984375 46.921875 10.890625 45.40625 
L 10.890625 53.90625 
Q 18.265625 57.375 23.78125 62.296875 
Q 29.296875 67.234375 31.59375 71.875 
L 37.25 71.875 
z
" id="ArialMT-31"/>
       <path d="M 4.15625 18.75 
L 13.375 19.53125 
Q 14.40625 12.796875 18.140625 9.390625 
Q 21.875 6 27.15625 6 
Q 33.5 6 37.890625 10.78125 
Q 42.28125 15.578125 42.28125 23.484375 
Q 42.28125 31 38.0625 35.34375 
Q 33.84375 39.703125 27 39.703125 
Q 22.75 39.703125 19.328125 37.765625 
Q 15.921875 35.84375 13.96875 32.765625 
L 5.71875 33.84375 
L 12.640625 70.609375 
L 48.25 70.609375 
L 48.25 62.203125 
L 19.671875 62.203125 
L 15.828125 42.96875 
Q 22.265625 47.46875 29.34375 47.46875 
Q 38.71875 47.46875 45.15625 40.96875 
Q 51.609375 34.46875 51.609375 24.265625 
Q 51.609375 14.546875 45.953125 7.46875 
Q 39.0625 -1.21875 27.15625 -1.21875 
Q 17.390625 -1.21875 11.203125 4.25 
Q 5.03125 9.71875 4.15625 18.75 
z
" id="ArialMT-35"/>
       <path d="M 3.171875 21.484375 
L 3.171875 30.328125 
L 30.171875 30.328125 
L 30.171875 21.484375 
z
" id="ArialMT-2d"/>
       <path d="M 5.46875 16.546875 
L 13.921875 17.328125 
Q 14.984375 11.375 18.015625 8.6875 
Q 21.046875 6 25.78125 6 
Q 29.828125 6 32.875 7.859375 
Q 35.9375 9.71875 37.890625 12.8125 
Q 39.84375 15.921875 41.15625 21.1875 
Q 42.484375 26.46875 42.484375 31.9375 
Q 42.484375 32.515625 42.4375 33.6875 
Q 39.796875 29.5 35.234375 26.875 
Q 30.671875 24.265625 25.34375 24.265625 
Q 16.453125 24.265625 10.296875 30.703125 
Q 4.15625 37.15625 4.15625 47.703125 
Q 4.15625 58.59375 10.578125 65.234375 
Q 17 71.875 26.65625 71.875 
Q 33.640625 71.875 39.421875 68.109375 
Q 45.21875 64.359375 48.21875 57.390625 
Q 51.21875 50.4375 51.21875 37.25 
Q 51.21875 23.53125 48.234375 15.40625 
Q 45.265625 7.28125 39.375 3.03125 
Q 33.5 -1.21875 25.59375 -1.21875 
Q 17.1875 -1.21875 11.859375 3.4375 
Q 6.546875 8.109375 5.46875 16.546875 
z
M 41.453125 48.140625 
Q 41.453125 55.71875 37.421875 60.15625 
Q 33.40625 64.59375 27.734375 64.59375 
Q 21.875 64.59375 17.53125 59.8125 
Q 13.1875 55.03125 13.1875 47.40625 
Q 13.1875 40.578125 17.3125 36.296875 
Q 21.4375 32.03125 27.484375 32.03125 
Q 33.59375 32.03125 37.515625 36.296875 
Q 41.453125 40.578125 41.453125 48.140625 
z
" id="ArialMT-39"/>
      </defs>
      <g style="fill:#262626;" transform="translate(14.357813 299.449775)rotate(-30)scale(0.2 -0.2)">
       <use xlink:href="#ArialMT-32"/>
       <use x="55.615234" xlink:href="#ArialMT-30"/>
       <use x="111.230469" xlink:href="#ArialMT-31"/>
       <use x="166.845703" xlink:href="#ArialMT-35"/>
       <use x="222.460938" xlink:href="#ArialMT-2d"/>
       <use x="255.761719" xlink:href="#ArialMT-30"/>
       <use x="311.376953" xlink:href="#ArialMT-39"/>
      </g>
     </g>
    </g>
    <g id="xtick_2">
     <g id="line2d_2"/>
     <g id="text_2">
      <!-- 2015-12 -->
      <g style="fill:#262626;" transform="translate(90.055296 299.449775)rotate(-30)scale(0.2 -0.2)">
       <use xlink:href="#ArialMT-32"/>
       <use x="55.615234" xlink:href="#ArialMT-30"/>
       <use x="111.230469" xlink:href="#ArialMT-31"/>
       <use x="166.845703" xlink:href="#ArialMT-35"/>
       <use x="222.460938" xlink:href="#ArialMT-2d"/>
       <use x="255.761719" xlink:href="#ArialMT-31"/>
       <use x="311.376953" xlink:href="#ArialMT-32"/>
      </g>
     </g>
    </g>
    <g id="xtick_3">
     <g id="line2d_3"/>
     <g id="text_3">
      <!-- 2016-03 -->
      <defs>
       <path d="M 49.75 54.046875 
L 41.015625 53.375 
Q 39.84375 58.546875 37.703125 60.890625 
Q 34.125 64.65625 28.90625 64.65625 
Q 24.703125 64.65625 21.53125 62.3125 
Q 17.390625 59.28125 14.984375 53.46875 
Q 12.59375 47.65625 12.5 36.921875 
Q 15.671875 41.75 20.265625 44.09375 
Q 24.859375 46.4375 29.890625 46.4375 
Q 38.671875 46.4375 44.84375 39.96875 
Q 51.03125 33.5 51.03125 23.25 
Q 51.03125 16.5 48.125 10.71875 
Q 45.21875 4.9375 40.140625 1.859375 
Q 35.0625 -1.21875 28.609375 -1.21875 
Q 17.625 -1.21875 10.6875 6.859375 
Q 3.765625 14.9375 3.765625 33.5 
Q 3.765625 54.25 11.421875 63.671875 
Q 18.109375 71.875 29.4375 71.875 
Q 37.890625 71.875 43.28125 67.140625 
Q 48.6875 62.40625 49.75 54.046875 
z
M 13.875 23.1875 
Q 13.875 18.65625 15.796875 14.5 
Q 17.71875 10.359375 21.1875 8.171875 
Q 24.65625 6 28.46875 6 
Q 34.03125 6 38.03125 10.484375 
Q 42.046875 14.984375 42.046875 22.703125 
Q 42.046875 30.125 38.078125 34.390625 
Q 34.125 38.671875 28.125 38.671875 
Q 22.171875 38.671875 18.015625 34.390625 
Q 13.875 30.125 13.875 23.1875 
z
" id="ArialMT-36"/>
       <path d="M 4.203125 18.890625 
L 12.984375 20.0625 
Q 14.5 12.59375 18.140625 9.296875 
Q 21.78125 6 27 6 
Q 33.203125 6 37.46875 10.296875 
Q 41.75 14.59375 41.75 20.953125 
Q 41.75 27 37.796875 30.921875 
Q 33.84375 34.859375 27.734375 34.859375 
Q 25.25 34.859375 21.53125 33.890625 
L 22.515625 41.609375 
Q 23.390625 41.5 23.921875 41.5 
Q 29.546875 41.5 34.03125 44.421875 
Q 38.53125 47.359375 38.53125 53.46875 
Q 38.53125 58.296875 35.25 61.46875 
Q 31.984375 64.65625 26.8125 64.65625 
Q 21.6875 64.65625 18.265625 61.421875 
Q 14.84375 58.203125 13.875 51.765625 
L 5.078125 53.328125 
Q 6.6875 62.15625 12.390625 67.015625 
Q 18.109375 71.875 26.609375 71.875 
Q 32.46875 71.875 37.390625 69.359375 
Q 42.328125 66.84375 44.9375 62.5 
Q 47.5625 58.15625 47.5625 53.265625 
Q 47.5625 48.640625 45.0625 44.828125 
Q 42.578125 41.015625 37.703125 38.765625 
Q 44.046875 37.3125 47.5625 32.6875 
Q 51.078125 28.078125 51.078125 21.140625 
Q 51.078125 11.765625 44.234375 5.25 
Q 37.40625 -1.265625 26.953125 -1.265625 
Q 17.53125 -1.265625 11.296875 4.34375 
Q 5.078125 9.96875 4.203125 18.890625 
z
" id="ArialMT-33"/>
      </defs>
      <g style="fill:#262626;" transform="translate(165.752779 299.449775)rotate(-30)scale(0.2 -0.2)">
       <use xlink:href="#ArialMT-32"/>
       <use x="55.615234" xlink:href="#ArialMT-30"/>
       <use x="111.230469" xlink:href="#ArialMT-31"/>
       <use x="166.845703" xlink:href="#ArialMT-36"/>
       <use x="222.460938" xlink:href="#ArialMT-2d"/>
       <use x="255.761719" xlink:href="#ArialMT-30"/>
       <use x="311.376953" xlink:href="#ArialMT-33"/>
      </g>
     </g>
    </g>
    <g id="xtick_4">
     <g id="line2d_4"/>
     <g id="text_4">
      <!-- 2016-06 -->
      <g style="fill:#262626;" transform="translate(242.282102 299.449775)rotate(-30)scale(0.2 -0.2)">
       <use xlink:href="#ArialMT-32"/>
       <use x="55.615234" xlink:href="#ArialMT-30"/>
       <use x="111.230469" xlink:href="#ArialMT-31"/>
       <use x="166.845703" xlink:href="#ArialMT-36"/>
       <use x="222.460938" xlink:href="#ArialMT-2d"/>
       <use x="255.761719" xlink:href="#ArialMT-30"/>
       <use x="311.376953" xlink:href="#ArialMT-36"/>
      </g>
     </g>
    </g>
    <g id="xtick_5">
     <g id="line2d_5"/>
     <g id="text_5">
      <!-- 2016-09 -->
      <g style="fill:#262626;" transform="translate(318.811426 299.449775)rotate(-30)scale(0.2 -0.2)">
       <use xlink:href="#ArialMT-32"/>
       <use x="55.615234" xlink:href="#ArialMT-30"/>
       <use x="111.230469" xlink:href="#ArialMT-31"/>
       <use x="166.845703" xlink:href="#ArialMT-36"/>
       <use x="222.460938" xlink:href="#ArialMT-2d"/>
       <use x="255.761719" xlink:href="#ArialMT-30"/>
       <use x="311.376953" xlink:href="#ArialMT-39"/>
      </g>
     </g>
    </g>
    <g id="xtick_6">
     <g id="line2d_6"/>
     <g id="text_6">
      <!-- 2016-12 -->
      <g style="fill:#262626;" transform="translate(394.508909 299.449775)rotate(-30)scale(0.2 -0.2)">
       <use xlink:href="#ArialMT-32"/>
       <use x="55.615234" xlink:href="#ArialMT-30"/>
       <use x="111.230469" xlink:href="#ArialMT-31"/>
       <use x="166.845703" xlink:href="#ArialMT-36"/>
       <use x="222.460938" xlink:href="#ArialMT-2d"/>
       <use x="255.761719" xlink:href="#ArialMT-31"/>
       <use x="311.376953" xlink:href="#ArialMT-32"/>
      </g>
     </g>
    </g>
    <g id="xtick_7">
     <g id="line2d_7"/>
     <g id="text_7">
      <!-- 2017-03 -->
      <defs>
       <path d="M 4.734375 62.203125 
L 4.734375 70.65625 
L 51.078125 70.65625 
L 51.078125 63.8125 
Q 44.234375 56.546875 37.515625 44.484375 
Q 30.8125 32.421875 27.15625 19.671875 
Q 24.515625 10.6875 23.78125 0 
L 14.75 0 
Q 14.890625 8.453125 18.0625 20.40625 
Q 21.234375 32.375 27.171875 43.484375 
Q 33.109375 54.59375 39.796875 62.203125 
z
" id="ArialMT-37"/>
      </defs>
      <g style="fill:#262626;" transform="translate(469.374551 299.449775)rotate(-30)scale(0.2 -0.2)">
       <use xlink:href="#ArialMT-32"/>
       <use x="55.615234" xlink:href="#ArialMT-30"/>
       <use x="111.230469" xlink:href="#ArialMT-31"/>
       <use x="166.845703" xlink:href="#ArialMT-37"/>
       <use x="222.460938" xlink:href="#ArialMT-2d"/>
       <use x="255.761719" xlink:href="#ArialMT-30"/>
       <use x="311.376953" xlink:href="#ArialMT-33"/>
      </g>
     </g>
    </g>
    <g id="xtick_8">
     <g id="line2d_8"/>
     <g id="text_8">
      <!-- 2017-06 -->
      <g style="fill:#262626;" transform="translate(545.903875 299.449775)rotate(-30)scale(0.2 -0.2)">
       <use xlink:href="#ArialMT-32"/>
       <use x="55.615234" xlink:href="#ArialMT-30"/>
       <use x="111.230469" xlink:href="#ArialMT-31"/>
       <use x="166.845703" xlink:href="#ArialMT-37"/>
       <use x="222.460938" xlink:href="#ArialMT-2d"/>
       <use x="255.761719" xlink:href="#ArialMT-30"/>
       <use x="311.376953" xlink:href="#ArialMT-36"/>
      </g>
     </g>
    </g>
    <g id="xtick_9">
     <g id="line2d_9"/>
     <g id="text_9">
      <!-- 2017-09 -->
      <g style="fill:#262626;" transform="translate(622.433198 299.449775)rotate(-30)scale(0.2 -0.2)">
       <use xlink:href="#ArialMT-32"/>
       <use x="55.615234" xlink:href="#ArialMT-30"/>
       <use x="111.230469" xlink:href="#ArialMT-31"/>
       <use x="166.845703" xlink:href="#ArialMT-37"/>
       <use x="222.460938" xlink:href="#ArialMT-2d"/>
       <use x="255.761719" xlink:href="#ArialMT-30"/>
       <use x="311.376953" xlink:href="#ArialMT-39"/>
      </g>
     </g>
    </g>
    <g id="text_10">
     <!-- Date of Purchase -->
     <defs>
      <path d="M 7.71875 0 
L 7.71875 71.578125 
L 32.375 71.578125 
Q 40.71875 71.578125 45.125 70.5625 
Q 51.265625 69.140625 55.609375 65.4375 
Q 61.28125 60.640625 64.078125 53.1875 
Q 66.890625 45.75 66.890625 36.1875 
Q 66.890625 28.03125 64.984375 21.734375 
Q 63.09375 15.4375 60.109375 11.296875 
Q 57.125 7.171875 53.578125 4.796875 
Q 50.046875 2.4375 45.046875 1.21875 
Q 40.046875 0 33.546875 0 
z
M 17.1875 8.453125 
L 32.46875 8.453125 
Q 39.546875 8.453125 43.578125 9.765625 
Q 47.609375 11.078125 50 13.484375 
Q 53.375 16.84375 55.25 22.53125 
Q 57.125 28.21875 57.125 36.328125 
Q 57.125 47.5625 53.4375 53.59375 
Q 49.75 59.625 44.484375 61.671875 
Q 40.671875 63.140625 32.234375 63.140625 
L 17.1875 63.140625 
z
" id="ArialMT-44"/>
      <path d="M 40.4375 6.390625 
Q 35.546875 2.25 31.03125 0.53125 
Q 26.515625 -1.171875 21.34375 -1.171875 
Q 12.796875 -1.171875 8.203125 3 
Q 3.609375 7.171875 3.609375 13.671875 
Q 3.609375 17.484375 5.34375 20.625 
Q 7.078125 23.78125 9.890625 25.6875 
Q 12.703125 27.59375 16.21875 28.5625 
Q 18.796875 29.25 24.03125 29.890625 
Q 34.671875 31.15625 39.703125 32.90625 
Q 39.75 34.71875 39.75 35.203125 
Q 39.75 40.578125 37.25 42.78125 
Q 33.890625 45.75 27.25 45.75 
Q 21.046875 45.75 18.09375 43.578125 
Q 15.140625 41.40625 13.71875 35.890625 
L 5.125 37.0625 
Q 6.296875 42.578125 8.984375 45.96875 
Q 11.671875 49.359375 16.75 51.1875 
Q 21.828125 53.03125 28.515625 53.03125 
Q 35.15625 53.03125 39.296875 51.46875 
Q 43.453125 49.90625 45.40625 47.53125 
Q 47.359375 45.171875 48.140625 41.546875 
Q 48.578125 39.3125 48.578125 33.453125 
L 48.578125 21.734375 
Q 48.578125 9.46875 49.140625 6.21875 
Q 49.703125 2.984375 51.375 0 
L 42.1875 0 
Q 40.828125 2.734375 40.4375 6.390625 
z
M 39.703125 26.03125 
Q 34.90625 24.078125 25.34375 22.703125 
Q 19.921875 21.921875 17.671875 20.9375 
Q 15.4375 19.96875 14.203125 18.09375 
Q 12.984375 16.21875 12.984375 13.921875 
Q 12.984375 10.40625 15.640625 8.0625 
Q 18.3125 5.71875 23.4375 5.71875 
Q 28.515625 5.71875 32.46875 7.9375 
Q 36.421875 10.15625 38.28125 14.015625 
Q 39.703125 17 39.703125 22.796875 
z
" id="ArialMT-61"/>
      <path d="M 25.78125 7.859375 
L 27.046875 0.09375 
Q 23.34375 -0.6875 20.40625 -0.6875 
Q 15.625 -0.6875 12.984375 0.828125 
Q 10.359375 2.34375 9.28125 4.8125 
Q 8.203125 7.28125 8.203125 15.1875 
L 8.203125 45.015625 
L 1.765625 45.015625 
L 1.765625 51.859375 
L 8.203125 51.859375 
L 8.203125 64.703125 
L 16.9375 69.96875 
L 16.9375 51.859375 
L 25.78125 51.859375 
L 25.78125 45.015625 
L 16.9375 45.015625 
L 16.9375 14.703125 
Q 16.9375 10.9375 17.40625 9.859375 
Q 17.875 8.796875 18.921875 8.15625 
Q 19.96875 7.515625 21.921875 7.515625 
Q 23.390625 7.515625 25.78125 7.859375 
z
" id="ArialMT-74"/>
      <path d="M 42.09375 16.703125 
L 51.171875 15.578125 
Q 49.03125 7.625 43.21875 3.21875 
Q 37.40625 -1.171875 28.375 -1.171875 
Q 17 -1.171875 10.328125 5.828125 
Q 3.65625 12.84375 3.65625 25.484375 
Q 3.65625 38.578125 10.390625 45.796875 
Q 17.140625 53.03125 27.875 53.03125 
Q 38.28125 53.03125 44.875 45.953125 
Q 51.46875 38.875 51.46875 26.03125 
Q 51.46875 25.25 51.421875 23.6875 
L 12.75 23.6875 
Q 13.234375 15.140625 17.578125 10.59375 
Q 21.921875 6.0625 28.421875 6.0625 
Q 33.25 6.0625 36.671875 8.59375 
Q 40.09375 11.140625 42.09375 16.703125 
z
M 13.234375 30.90625 
L 42.1875 30.90625 
Q 41.609375 37.453125 38.875 40.71875 
Q 34.671875 45.796875 27.984375 45.796875 
Q 21.921875 45.796875 17.796875 41.75 
Q 13.671875 37.703125 13.234375 30.90625 
z
" id="ArialMT-65"/>
      <path id="ArialMT-20"/>
      <path d="M 3.328125 25.921875 
Q 3.328125 40.328125 11.328125 47.265625 
Q 18.015625 53.03125 27.640625 53.03125 
Q 38.328125 53.03125 45.109375 46.015625 
Q 51.90625 39.015625 51.90625 26.65625 
Q 51.90625 16.65625 48.90625 10.90625 
Q 45.90625 5.171875 40.15625 2 
Q 34.421875 -1.171875 27.640625 -1.171875 
Q 16.75 -1.171875 10.03125 5.8125 
Q 3.328125 12.796875 3.328125 25.921875 
z
M 12.359375 25.921875 
Q 12.359375 15.96875 16.703125 11.015625 
Q 21.046875 6.0625 27.640625 6.0625 
Q 34.1875 6.0625 38.53125 11.03125 
Q 42.875 16.015625 42.875 26.21875 
Q 42.875 35.84375 38.5 40.796875 
Q 34.125 45.75 27.640625 45.75 
Q 21.046875 45.75 16.703125 40.8125 
Q 12.359375 35.890625 12.359375 25.921875 
z
" id="ArialMT-6f"/>
      <path d="M 8.6875 0 
L 8.6875 45.015625 
L 0.921875 45.015625 
L 0.921875 51.859375 
L 8.6875 51.859375 
L 8.6875 57.375 
Q 8.6875 62.59375 9.625 65.140625 
Q 10.890625 68.5625 14.078125 70.671875 
Q 17.28125 72.796875 23.046875 72.796875 
Q 26.765625 72.796875 31.25 71.921875 
L 29.9375 64.265625 
Q 27.203125 64.75 24.75 64.75 
Q 20.75 64.75 19.09375 63.03125 
Q 17.4375 61.328125 17.4375 56.640625 
L 17.4375 51.859375 
L 27.546875 51.859375 
L 27.546875 45.015625 
L 17.4375 45.015625 
L 17.4375 0 
z
" id="ArialMT-66"/>
      <path d="M 7.71875 0 
L 7.71875 71.578125 
L 34.71875 71.578125 
Q 41.84375 71.578125 45.609375 70.90625 
Q 50.875 70.015625 54.4375 67.546875 
Q 58.015625 65.09375 60.1875 60.640625 
Q 62.359375 56.203125 62.359375 50.875 
Q 62.359375 41.75 56.546875 35.421875 
Q 50.734375 29.109375 35.546875 29.109375 
L 17.1875 29.109375 
L 17.1875 0 
z
M 17.1875 37.546875 
L 35.6875 37.546875 
Q 44.875 37.546875 48.734375 40.96875 
Q 52.59375 44.390625 52.59375 50.59375 
Q 52.59375 55.078125 50.3125 58.265625 
Q 48.046875 61.46875 44.34375 62.5 
Q 41.9375 63.140625 35.5 63.140625 
L 17.1875 63.140625 
z
" id="ArialMT-50"/>
      <path d="M 40.578125 0 
L 40.578125 7.625 
Q 34.515625 -1.171875 24.125 -1.171875 
Q 19.53125 -1.171875 15.546875 0.578125 
Q 11.578125 2.34375 9.640625 5 
Q 7.71875 7.671875 6.9375 11.53125 
Q 6.390625 14.109375 6.390625 19.734375 
L 6.390625 51.859375 
L 15.1875 51.859375 
L 15.1875 23.09375 
Q 15.1875 16.21875 15.71875 13.8125 
Q 16.546875 10.359375 19.234375 8.375 
Q 21.921875 6.390625 25.875 6.390625 
Q 29.828125 6.390625 33.296875 8.421875 
Q 36.765625 10.453125 38.203125 13.9375 
Q 39.65625 17.4375 39.65625 24.078125 
L 39.65625 51.859375 
L 48.4375 51.859375 
L 48.4375 0 
z
" id="ArialMT-75"/>
      <path d="M 6.5 0 
L 6.5 51.859375 
L 14.40625 51.859375 
L 14.40625 44 
Q 17.4375 49.515625 20 51.265625 
Q 22.5625 53.03125 25.640625 53.03125 
Q 30.078125 53.03125 34.671875 50.203125 
L 31.640625 42.046875 
Q 28.421875 43.953125 25.203125 43.953125 
Q 22.3125 43.953125 20.015625 42.21875 
Q 17.71875 40.484375 16.75 37.40625 
Q 15.28125 32.71875 15.28125 27.15625 
L 15.28125 0 
z
" id="ArialMT-72"/>
      <path d="M 40.4375 19 
L 49.078125 17.875 
Q 47.65625 8.9375 41.8125 3.875 
Q 35.984375 -1.171875 27.484375 -1.171875 
Q 16.84375 -1.171875 10.375 5.78125 
Q 3.90625 12.75 3.90625 25.734375 
Q 3.90625 34.125 6.6875 40.421875 
Q 9.46875 46.734375 15.15625 49.875 
Q 20.84375 53.03125 27.546875 53.03125 
Q 35.984375 53.03125 41.359375 48.75 
Q 46.734375 44.484375 48.25 36.625 
L 39.703125 35.296875 
Q 38.484375 40.53125 35.375 43.15625 
Q 32.28125 45.796875 27.875 45.796875 
Q 21.234375 45.796875 17.078125 41.03125 
Q 12.9375 36.28125 12.9375 25.984375 
Q 12.9375 15.53125 16.9375 10.796875 
Q 20.953125 6.0625 27.390625 6.0625 
Q 32.5625 6.0625 36.03125 9.234375 
Q 39.5 12.40625 40.4375 19 
z
" id="ArialMT-63"/>
      <path d="M 6.59375 0 
L 6.59375 71.578125 
L 15.375 71.578125 
L 15.375 45.90625 
Q 21.53125 53.03125 30.90625 53.03125 
Q 36.671875 53.03125 40.921875 50.75 
Q 45.171875 48.484375 47 44.484375 
Q 48.828125 40.484375 48.828125 32.859375 
L 48.828125 0 
L 40.046875 0 
L 40.046875 32.859375 
Q 40.046875 39.453125 37.1875 42.453125 
Q 34.328125 45.453125 29.109375 45.453125 
Q 25.203125 45.453125 21.75 43.421875 
Q 18.3125 41.40625 16.84375 37.9375 
Q 15.375 34.46875 15.375 28.375 
L 15.375 0 
z
" id="ArialMT-68"/>
      <path d="M 3.078125 15.484375 
L 11.765625 16.84375 
Q 12.5 11.625 15.84375 8.84375 
Q 19.1875 6.0625 25.203125 6.0625 
Q 31.25 6.0625 34.171875 8.515625 
Q 37.109375 10.984375 37.109375 14.3125 
Q 37.109375 17.28125 34.515625 19 
Q 32.71875 20.171875 25.53125 21.96875 
Q 15.875 24.421875 12.140625 26.203125 
Q 8.40625 27.984375 6.46875 31.125 
Q 4.546875 34.28125 4.546875 38.09375 
Q 4.546875 41.546875 6.125 44.5 
Q 7.71875 47.46875 10.453125 49.421875 
Q 12.5 50.921875 16.03125 51.96875 
Q 19.578125 53.03125 23.640625 53.03125 
Q 29.734375 53.03125 34.34375 51.265625 
Q 38.96875 49.515625 41.15625 46.5 
Q 43.359375 43.5 44.1875 38.484375 
L 35.59375 37.3125 
Q 35.015625 41.3125 32.203125 43.546875 
Q 29.390625 45.796875 24.265625 45.796875 
Q 18.21875 45.796875 15.625 43.796875 
Q 13.03125 41.796875 13.03125 39.109375 
Q 13.03125 37.40625 14.109375 36.03125 
Q 15.1875 34.625 17.484375 33.6875 
Q 18.796875 33.203125 25.25 31.453125 
Q 34.578125 28.953125 38.25 27.359375 
Q 41.9375 25.78125 44.03125 22.75 
Q 46.140625 19.734375 46.140625 15.234375 
Q 46.140625 10.84375 43.578125 6.953125 
Q 41.015625 3.078125 36.171875 0.953125 
Q 31.34375 -1.171875 25.25 -1.171875 
Q 15.140625 -1.171875 9.84375 3.03125 
Q 4.546875 7.234375 3.078125 15.484375 
z
" id="ArialMT-73"/>
     </defs>
     <g style="fill:#262626;" transform="translate(298.95412 322.639413)scale(0.22 -0.22)">
      <use xlink:href="#ArialMT-44"/>
      <use x="72.216797" xlink:href="#ArialMT-61"/>
      <use x="127.832031" xlink:href="#ArialMT-74"/>
      <use x="155.615234" xlink:href="#ArialMT-65"/>
      <use x="211.230469" xlink:href="#ArialMT-20"/>
      <use x="239.013672" xlink:href="#ArialMT-6f"/>
      <use x="294.628906" xlink:href="#ArialMT-66"/>
      <use x="322.412109" xlink:href="#ArialMT-20"/>
      <use x="350.195312" xlink:href="#ArialMT-50"/>
      <use x="416.894531" xlink:href="#ArialMT-75"/>
      <use x="472.509766" xlink:href="#ArialMT-72"/>
      <use x="505.810547" xlink:href="#ArialMT-63"/>
      <use x="555.810547" xlink:href="#ArialMT-68"/>
      <use x="611.425781" xlink:href="#ArialMT-61"/>
      <use x="667.041016" xlink:href="#ArialMT-73"/>
      <use x="717.041016" xlink:href="#ArialMT-65"/>
     </g>
    </g>
   </g>
   <g id="matplotlib.axis_2">
    <g id="ytick_1">
     <g id="line2d_10"/>
     <g id="text_11">
      <!-- 0 -->
      <g style="fill:#262626;" transform="translate(61.781583 240.833761)scale(0.2 -0.2)">
       <use xlink:href="#ArialMT-30"/>
      </g>
     </g>
    </g>
    <g id="ytick_2">
     <g id="line2d_11"/>
     <g id="text_12">
      <!-- 100 -->
      <g style="fill:#262626;" transform="translate(39.537833 190.148845)scale(0.2 -0.2)">
       <use xlink:href="#ArialMT-31"/>
       <use x="55.615234" xlink:href="#ArialMT-30"/>
       <use x="111.230469" xlink:href="#ArialMT-30"/>
      </g>
     </g>
    </g>
    <g id="ytick_3">
     <g id="line2d_12"/>
     <g id="text_13">
      <!-- 200 -->
      <g style="fill:#262626;" transform="translate(39.537833 139.463929)scale(0.2 -0.2)">
       <use xlink:href="#ArialMT-32"/>
       <use x="55.615234" xlink:href="#ArialMT-30"/>
       <use x="111.230469" xlink:href="#ArialMT-30"/>
      </g>
     </g>
    </g>
    <g id="ytick_4">
     <g id="line2d_13"/>
     <g id="text_14">
      <!-- 300 -->
      <g style="fill:#262626;" transform="translate(39.537833 88.779013)scale(0.2 -0.2)">
       <use xlink:href="#ArialMT-33"/>
       <use x="55.615234" xlink:href="#ArialMT-30"/>
       <use x="111.230469" xlink:href="#ArialMT-30"/>
      </g>
     </g>
    </g>
    <g id="ytick_5">
     <g id="line2d_14"/>
     <g id="text_15">
      <!-- 400 -->
      <defs>
       <path d="M 32.328125 0 
L 32.328125 17.140625 
L 1.265625 17.140625 
L 1.265625 25.203125 
L 33.9375 71.578125 
L 41.109375 71.578125 
L 41.109375 25.203125 
L 50.78125 25.203125 
L 50.78125 17.140625 
L 41.109375 17.140625 
L 41.109375 0 
z
M 32.328125 25.203125 
L 32.328125 57.46875 
L 9.90625 25.203125 
z
" id="ArialMT-34"/>
      </defs>
      <g style="fill:#262626;" transform="translate(39.537833 38.094097)scale(0.2 -0.2)">
       <use xlink:href="#ArialMT-34"/>
       <use x="55.615234" xlink:href="#ArialMT-30"/>
       <use x="111.230469" xlink:href="#ArialMT-30"/>
      </g>
     </g>
    </g>
    <g id="text_16">
     <!-- Cumulative vehicles sold -->
     <defs>
      <path d="M 58.796875 25.09375 
L 68.265625 22.703125 
Q 65.28125 11.03125 57.546875 4.90625 
Q 49.8125 -1.21875 38.625 -1.21875 
Q 27.046875 -1.21875 19.796875 3.484375 
Q 12.546875 8.203125 8.765625 17.140625 
Q 4.984375 26.078125 4.984375 36.328125 
Q 4.984375 47.515625 9.25 55.828125 
Q 13.53125 64.15625 21.40625 68.46875 
Q 29.296875 72.796875 38.765625 72.796875 
Q 49.515625 72.796875 56.828125 67.328125 
Q 64.15625 61.859375 67.046875 51.953125 
L 57.71875 49.75 
Q 55.21875 57.5625 50.484375 61.125 
Q 45.75 64.703125 38.578125 64.703125 
Q 30.328125 64.703125 24.78125 60.734375 
Q 19.234375 56.78125 16.984375 50.109375 
Q 14.75 43.453125 14.75 36.375 
Q 14.75 27.25 17.40625 20.4375 
Q 20.0625 13.625 25.671875 10.25 
Q 31.296875 6.890625 37.84375 6.890625 
Q 45.796875 6.890625 51.3125 11.46875 
Q 56.84375 16.0625 58.796875 25.09375 
z
" id="ArialMT-43"/>
      <path d="M 6.59375 0 
L 6.59375 51.859375 
L 14.453125 51.859375 
L 14.453125 44.578125 
Q 16.890625 48.390625 20.9375 50.703125 
Q 25 53.03125 30.171875 53.03125 
Q 35.9375 53.03125 39.625 50.640625 
Q 43.3125 48.25 44.828125 43.953125 
Q 50.984375 53.03125 60.84375 53.03125 
Q 68.5625 53.03125 72.703125 48.75 
Q 76.859375 44.484375 76.859375 35.59375 
L 76.859375 0 
L 68.109375 0 
L 68.109375 32.671875 
Q 68.109375 37.9375 67.25 40.25 
Q 66.40625 42.578125 64.15625 43.984375 
Q 61.921875 45.40625 58.890625 45.40625 
Q 53.421875 45.40625 49.796875 41.765625 
Q 46.1875 38.140625 46.1875 30.125 
L 46.1875 0 
L 37.40625 0 
L 37.40625 33.6875 
Q 37.40625 39.546875 35.25 42.46875 
Q 33.109375 45.40625 28.21875 45.40625 
Q 24.515625 45.40625 21.359375 43.453125 
Q 18.21875 41.5 16.796875 37.734375 
Q 15.375 33.984375 15.375 26.90625 
L 15.375 0 
z
" id="ArialMT-6d"/>
      <path d="M 6.390625 0 
L 6.390625 71.578125 
L 15.1875 71.578125 
L 15.1875 0 
z
" id="ArialMT-6c"/>
      <path d="M 6.640625 61.46875 
L 6.640625 71.578125 
L 15.4375 71.578125 
L 15.4375 61.46875 
z
M 6.640625 0 
L 6.640625 51.859375 
L 15.4375 51.859375 
L 15.4375 0 
z
" id="ArialMT-69"/>
      <path d="M 21 0 
L 1.265625 51.859375 
L 10.546875 51.859375 
L 21.6875 20.796875 
Q 23.484375 15.765625 25 10.359375 
Q 26.171875 14.453125 28.265625 20.21875 
L 39.796875 51.859375 
L 48.828125 51.859375 
L 29.203125 0 
z
" id="ArialMT-76"/>
      <path d="M 40.234375 0 
L 40.234375 6.546875 
Q 35.296875 -1.171875 25.734375 -1.171875 
Q 19.53125 -1.171875 14.328125 2.25 
Q 9.125 5.671875 6.265625 11.796875 
Q 3.421875 17.921875 3.421875 25.875 
Q 3.421875 33.640625 6 39.96875 
Q 8.59375 46.296875 13.765625 49.65625 
Q 18.953125 53.03125 25.34375 53.03125 
Q 30.03125 53.03125 33.6875 51.046875 
Q 37.359375 49.078125 39.65625 45.90625 
L 39.65625 71.578125 
L 48.390625 71.578125 
L 48.390625 0 
z
M 12.453125 25.875 
Q 12.453125 15.921875 16.640625 10.984375 
Q 20.84375 6.0625 26.5625 6.0625 
Q 32.328125 6.0625 36.34375 10.765625 
Q 40.375 15.484375 40.375 25.140625 
Q 40.375 35.796875 36.265625 40.765625 
Q 32.171875 45.75 26.171875 45.75 
Q 20.3125 45.75 16.375 40.96875 
Q 12.453125 36.1875 12.453125 25.875 
z
" id="ArialMT-64"/>
     </defs>
     <g style="fill:#262626;" transform="translate(31.165333 257.915884)rotate(-90)scale(0.22 -0.22)">
      <use xlink:href="#ArialMT-43"/>
      <use x="72.216797" xlink:href="#ArialMT-75"/>
      <use x="127.832031" xlink:href="#ArialMT-6d"/>
      <use x="211.132812" xlink:href="#ArialMT-75"/>
      <use x="266.748047" xlink:href="#ArialMT-6c"/>
      <use x="288.964844" xlink:href="#ArialMT-61"/>
      <use x="344.580078" xlink:href="#ArialMT-74"/>
      <use x="372.363281" xlink:href="#ArialMT-69"/>
      <use x="394.580078" xlink:href="#ArialMT-76"/>
      <use x="444.580078" xlink:href="#ArialMT-65"/>
      <use x="500.195312" xlink:href="#ArialMT-20"/>
      <use x="527.978516" xlink:href="#ArialMT-76"/>
      <use x="577.978516" xlink:href="#ArialMT-65"/>
      <use x="633.59375" xlink:href="#ArialMT-68"/>
      <use x="689.208984" xlink:href="#ArialMT-69"/>
      <use x="711.425781" xlink:href="#ArialMT-63"/>
      <use x="761.425781" xlink:href="#ArialMT-6c"/>
      <use x="783.642578" xlink:href="#ArialMT-65"/>
      <use x="839.257812" xlink:href="#ArialMT-73"/>
      <use x="889.257812" xlink:href="#ArialMT-20"/>
      <use x="917.041016" xlink:href="#ArialMT-73"/>
      <use x="967.041016" xlink:href="#ArialMT-6f"/>
      <use x="1022.65625" xlink:href="#ArialMT-6c"/>
      <use x="1044.873047" xlink:href="#ArialMT-64"/>
     </g>
    </g>
   </g>
   <g id="line2d_15">
    <path clip-path="url(#p82b28c3159)" d="M -1 232.774234 
L 41.638796 232.66225 
L 44.134318 232.155401 
L 44.966158 230.128004 
L 45.797999 229.621155 
L 47.46168 229.114306 
L 48.29352 228.100608 
L 50.789042 227.593758 
L 52.452723 227.086909 
L 53.284563 226.073211 
L 58.275606 224.045814 
L 59.939287 223.032116 
L 62.434808 222.018418 
L 64.098489 221.004719 
L 66.594011 220.49787 
L 71.585053 219.991021 
L 85.726341 218.977323 
L 89.053703 217.963624 
L 94.876587 217.456775 
L 98.203949 216.949926 
L 104.026832 216.443077 
L 108.186034 215.429379 
L 109.849715 214.41568 
L 114.008918 213.908831 
L 117.336279 212.895133 
L 119.831801 212.388284 
L 127.318365 211.881434 
L 130.645727 210.867736 
L 131.477567 210.360887 
L 134.804929 209.854038 
L 137.300451 209.347189 
L 138.132291 208.33349 
L 139.795972 207.826641 
L 141.459653 206.812943 
L 146.450696 205.799245 
L 147.282536 205.292395 
L 153.93726 204.785546 
L 157.264622 202.75815 
L 166.414867 201.744451 
L 168.078548 200.223904 
L 170.57407 199.717055 
L 178.060634 199.210205 
L 178.892474 198.703356 
L 180.556155 198.196507 
L 183.883517 197.689658 
L 188.04272 197.182809 
L 196.361124 196.67596 
L 197.192965 196.16911 
L 201.352167 195.662261 
L 203.847689 195.155412 
L 207.175051 194.648563 
L 218.820817 194.141714 
L 222.148179 193.128016 
L 222.98002 192.621166 
L 224.643701 192.114317 
L 233.793946 191.100619 
L 234.625786 190.59377 
L 236.289467 190.086921 
L 238.784989 189.580071 
L 242.944191 189.073222 
L 244.607872 188.566373 
L 245.439712 188.059524 
L 253.758117 187.552675 
L 256.253638 187.045826 
L 257.085479 186.538976 
L 259.581 186.032127 
L 265.403884 184.51158 
L 266.235724 184.004731 
L 271.226767 182.484183 
L 272.058607 181.977334 
L 275.385969 181.470485 
L 277.04965 179.443088 
L 278.713331 178.42939 
L 280.377012 177.922541 
L 281.208853 177.415692 
L 282.872534 175.895144 
L 283.704374 175.388295 
L 288.695417 174.374597 
L 290.359098 173.867747 
L 295.350141 173.360898 
L 297.845662 171.840351 
L 300.341184 171.333502 
L 301.173024 169.812954 
L 304.500386 169.306105 
L 311.98695 168.799256 
L 314.482472 168.292407 
L 316.146153 167.278708 
L 317.809834 166.771859 
L 319.473514 165.758161 
L 321.137195 165.251312 
L 321.969036 164.237613 
L 323.632717 163.730764 
L 324.464557 163.223915 
L 327.791919 162.717066 
L 330.287441 162.210217 
L 331.951122 161.703368 
L 332.782962 159.169122 
L 333.614803 158.662273 
L 339.437686 158.155423 
L 341.101367 157.648574 
L 343.596888 156.128027 
L 345.260569 155.621178 
L 350.251612 155.114328 
L 351.083452 154.10063 
L 355.242655 153.593781 
L 358.570017 151.566384 
L 361.897379 150.552686 
L 362.729219 149.538988 
L 366.056581 149.032139 
L 368.552102 148.525289 
L 370.215783 147.511591 
L 371.047624 146.497893 
L 372.711305 144.977345 
L 373.543145 144.470496 
L 374.374986 143.456798 
L 378.534188 142.949949 
L 380.197869 142.443099 
L 381.029709 141.93625 
L 383.525231 140.922552 
L 386.020752 138.895155 
L 389.348114 136.867759 
L 391.011795 136.36091 
L 391.843636 135.85406 
L 397.666519 135.347211 
L 400.16204 134.840362 
L 401.825721 134.333513 
L 402.657562 133.319815 
L 403.489402 132.812965 
L 405.984924 131.799267 
L 407.648605 131.292418 
L 408.480445 130.785569 
L 410.975967 128.251323 
L 414.303328 127.237625 
L 415.135169 126.730775 
L 416.79885 126.223926 
L 418.462531 125.210228 
L 419.294371 123.68968 
L 420.126212 123.182831 
L 425.117255 122.675982 
L 426.780936 122.169133 
L 428.444616 121.155435 
L 430.108297 120.648586 
L 431.771978 119.634887 
L 434.2675 119.128038 
L 435.09934 117.100641 
L 435.931181 116.593792 
L 437.594862 116.086943 
L 441.754064 115.580094 
L 443.417745 115.073245 
L 446.745107 113.552697 
L 447.576947 113.045848 
L 448.408788 112.03215 
L 455.895352 111.018451 
L 459.222714 110.004753 
L 460.886395 107.977357 
L 461.718235 107.470507 
L 463.381916 106.963658 
L 464.213757 106.456809 
L 466.709278 105.94996 
L 469.2048 104.429412 
L 470.03664 103.415714 
L 471.700321 102.908865 
L 472.532162 102.402016 
L 477.523204 101.895167 
L 480.850566 100.881468 
L 481.682407 100.374619 
L 483.346088 98.854072 
L 485.009769 95.812977 
L 487.50529 94.292429 
L 493.328173 93.78558 
L 494.991854 92.771882 
L 499.982897 92.265033 
L 504.97394 91.251334 
L 505.80578 90.744485 
L 509.133142 90.237636 
L 509.964983 89.223938 
L 510.796823 88.717088 
L 514.124185 87.70339 
L 519.115228 86.689692 
L 519.947069 86.182843 
L 524.106271 85.675993 
L 528.265473 84.662295 
L 529.097314 84.155446 
L 531.592835 83.648597 
L 534.088357 82.634898 
L 534.920197 81.6212 
L 536.583878 81.114351 
L 537.415718 80.607502 
L 541.574921 79.086954 
L 543.238602 78.073256 
L 546.565964 77.566407 
L 548.229645 77.059558 
L 549.061485 76.552709 
L 553.220687 75.032161 
L 554.884368 74.018463 
L 563.202773 71.484217 
L 564.034614 70.470519 
L 565.698295 69.963669 
L 566.530135 68.949971 
L 572.353018 67.429424 
L 574.016699 66.922574 
L 574.84854 64.895178 
L 578.175902 64.388329 
L 581.503264 63.37463 
L 588.157987 62.360932 
L 588.989828 61.854083 
L 606.458478 61.347234 
L 610.61768 60.333535 
L 622.263447 58.306139 
L 634.741054 56.785591 
L 635.572894 56.278742 
L 639.732097 55.771893 
L 640.563937 54.758195 
L 643.891299 53.744496 
L 644.72314 53.237647 
L 648.050501 52.730798 
L 653.873385 52.223949 
L 655.537066 51.7171 
L 657.200747 50.703401 
L 661.359949 50.196552 
L 663.85547 49.182854 
L 668.014673 47.662306 
L 674.669397 47.155457 
L 679.660439 46.141759 
L 682.987801 45.63491 
L 685.483323 45.128061 
L 687.147004 44.114362 
L 693.801727 43.100664 
L 696.297249 42.593815 
L 700.456451 42.086966 
L 702.120132 41.580116 
L 704.615654 41.073267 
L 705.447494 40.566418 
L 769.499211 40.059569 
L 769.499211 40.059569 
" style="fill:none;stroke:#4c72b0;stroke-linecap:round;stroke-width:1.75;"/>
   </g>
   <g id="line2d_16">
    <path clip-path="url(#p82b28c3159)" d="M 435.09934 243.356767 
L 435.09934 30.37875 
" style="fill:none;stroke:#ff0000;stroke-dasharray:6.475,2.8;stroke-dashoffset:0;stroke-width:1.75;"/>
   </g>
   <g id="patch_3">
    <path d="M 79.903458 243.356767 
L 79.903458 30.37875 
" style="fill:none;"/>
   </g>
   <g id="patch_4">
    <path d="M 687.978844 243.356767 
L 687.978844 30.37875 
" style="fill:none;"/>
   </g>
   <g id="patch_5">
    <path d="M 79.903458 243.356767 
L 687.978844 243.356767 
" style="fill:none;"/>
   </g>
   <g id="patch_6">
    <path d="M 79.903458 30.37875 
L 687.978844 30.37875 
" style="fill:none;"/>
   </g>
   <g id="text_17">
    <!-- Plug-in Hybrids -->
    <defs>
     <path d="M 4.984375 -4.296875 
L 13.53125 -5.5625 
Q 14.0625 -9.515625 16.5 -11.328125 
Q 19.78125 -13.765625 25.4375 -13.765625 
Q 31.546875 -13.765625 34.859375 -11.328125 
Q 38.1875 -8.890625 39.359375 -4.5 
Q 40.046875 -1.8125 39.984375 6.78125 
Q 34.234375 0 25.640625 0 
Q 14.9375 0 9.078125 7.71875 
Q 3.21875 15.4375 3.21875 26.21875 
Q 3.21875 33.640625 5.90625 39.90625 
Q 8.59375 46.1875 13.6875 49.609375 
Q 18.796875 53.03125 25.6875 53.03125 
Q 34.859375 53.03125 40.828125 45.609375 
L 40.828125 51.859375 
L 48.921875 51.859375 
L 48.921875 7.03125 
Q 48.921875 -5.078125 46.453125 -10.125 
Q 44 -15.1875 38.640625 -18.109375 
Q 33.296875 -21.046875 25.484375 -21.046875 
Q 16.21875 -21.046875 10.5 -16.875 
Q 4.78125 -12.703125 4.984375 -4.296875 
z
M 12.25 26.859375 
Q 12.25 16.65625 16.296875 11.96875 
Q 20.359375 7.28125 26.46875 7.28125 
Q 32.515625 7.28125 36.609375 11.9375 
Q 40.71875 16.609375 40.71875 26.5625 
Q 40.71875 36.078125 36.5 40.90625 
Q 32.28125 45.75 26.3125 45.75 
Q 20.453125 45.75 16.34375 40.984375 
Q 12.25 36.234375 12.25 26.859375 
z
" id="ArialMT-67"/>
     <path d="M 6.59375 0 
L 6.59375 51.859375 
L 14.5 51.859375 
L 14.5 44.484375 
Q 20.21875 53.03125 31 53.03125 
Q 35.6875 53.03125 39.625 51.34375 
Q 43.5625 49.65625 45.515625 46.921875 
Q 47.46875 44.1875 48.25 40.4375 
Q 48.734375 37.984375 48.734375 31.890625 
L 48.734375 0 
L 39.9375 0 
L 39.9375 31.546875 
Q 39.9375 36.921875 38.90625 39.578125 
Q 37.890625 42.234375 35.28125 43.8125 
Q 32.671875 45.40625 29.15625 45.40625 
Q 23.53125 45.40625 19.453125 41.84375 
Q 15.375 38.28125 15.375 28.328125 
L 15.375 0 
z
" id="ArialMT-6e"/>
     <path d="M 8.015625 0 
L 8.015625 71.578125 
L 17.484375 71.578125 
L 17.484375 42.1875 
L 54.6875 42.1875 
L 54.6875 71.578125 
L 64.15625 71.578125 
L 64.15625 0 
L 54.6875 0 
L 54.6875 33.734375 
L 17.484375 33.734375 
L 17.484375 0 
z
" id="ArialMT-48"/>
     <path d="M 6.203125 -19.96875 
L 5.21875 -11.71875 
Q 8.109375 -12.5 10.25 -12.5 
Q 13.1875 -12.5 14.9375 -11.515625 
Q 16.703125 -10.546875 17.828125 -8.796875 
Q 18.65625 -7.46875 20.515625 -2.25 
Q 20.75 -1.515625 21.296875 -0.09375 
L 1.609375 51.859375 
L 11.078125 51.859375 
L 21.875 21.828125 
Q 23.96875 16.109375 25.640625 9.8125 
Q 27.15625 15.875 29.25 21.625 
L 40.328125 51.859375 
L 49.125 51.859375 
L 29.390625 -0.875 
Q 26.21875 -9.421875 24.46875 -12.640625 
Q 22.125 -17 19.09375 -19.015625 
Q 16.0625 -21.046875 11.859375 -21.046875 
Q 9.328125 -21.046875 6.203125 -19.96875 
z
" id="ArialMT-79"/>
     <path d="M 14.703125 0 
L 6.546875 0 
L 6.546875 71.578125 
L 15.328125 71.578125 
L 15.328125 46.046875 
Q 20.90625 53.03125 29.546875 53.03125 
Q 34.328125 53.03125 38.59375 51.09375 
Q 42.875 49.171875 45.625 45.671875 
Q 48.390625 42.1875 49.953125 37.25 
Q 51.515625 32.328125 51.515625 26.703125 
Q 51.515625 13.375 44.921875 6.09375 
Q 38.328125 -1.171875 29.109375 -1.171875 
Q 19.921875 -1.171875 14.703125 6.5 
z
M 14.59375 26.3125 
Q 14.59375 17 17.140625 12.84375 
Q 21.296875 6.0625 28.375 6.0625 
Q 34.125 6.0625 38.328125 11.0625 
Q 42.53125 16.0625 42.53125 25.984375 
Q 42.53125 36.140625 38.5 40.96875 
Q 34.46875 45.796875 28.765625 45.796875 
Q 23 45.796875 18.796875 40.796875 
Q 14.59375 35.796875 14.59375 26.3125 
z
" id="ArialMT-62"/>
    </defs>
    <g style="fill:#262626;" transform="translate(302.581151 24.37875)scale(0.24 -0.24)">
     <use xlink:href="#ArialMT-50"/>
     <use x="66.699219" xlink:href="#ArialMT-6c"/>
     <use x="88.916016" xlink:href="#ArialMT-75"/>
     <use x="144.53125" xlink:href="#ArialMT-67"/>
     <use x="200.146484" xlink:href="#ArialMT-2d"/>
     <use x="233.447266" xlink:href="#ArialMT-69"/>
     <use x="255.664062" xlink:href="#ArialMT-6e"/>
     <use x="311.279297" xlink:href="#ArialMT-20"/>
     <use x="339.0625" xlink:href="#ArialMT-48"/>
     <use x="411.279297" xlink:href="#ArialMT-79"/>
     <use x="461.279297" xlink:href="#ArialMT-62"/>
     <use x="516.894531" xlink:href="#ArialMT-72"/>
     <use x="550.195312" xlink:href="#ArialMT-69"/>
     <use x="572.412109" xlink:href="#ArialMT-64"/>
     <use x="628.027344" xlink:href="#ArialMT-73"/>
    </g>
   </g>
  </g>
  <g id="axes_2">
   <g id="patch_7">
    <path d="M 786.943458 243.356767 
L 1395.018844 243.356767 
L 1395.018844 30.37875 
L 786.943458 30.37875 
z
" style="fill:#eaeaf2;"/>
   </g>
   <g id="matplotlib.axis_3">
    <g id="xtick_10">
     <g id="line2d_17"/>
     <g id="text_18">
      <!-- 2015-09 -->
      <g style="fill:#262626;" transform="translate(721.397812 299.449775)rotate(-30)scale(0.2 -0.2)">
       <use xlink:href="#ArialMT-32"/>
       <use x="55.615234" xlink:href="#ArialMT-30"/>
       <use x="111.230469" xlink:href="#ArialMT-31"/>
       <use x="166.845703" xlink:href="#ArialMT-35"/>
       <use x="222.460938" xlink:href="#ArialMT-2d"/>
       <use x="255.761719" xlink:href="#ArialMT-30"/>
       <use x="311.376953" xlink:href="#ArialMT-39"/>
      </g>
     </g>
    </g>
    <g id="xtick_11">
     <g id="line2d_18"/>
     <g id="text_19">
      <!-- 2015-12 -->
      <g style="fill:#262626;" transform="translate(797.095296 299.449775)rotate(-30)scale(0.2 -0.2)">
       <use xlink:href="#ArialMT-32"/>
       <use x="55.615234" xlink:href="#ArialMT-30"/>
       <use x="111.230469" xlink:href="#ArialMT-31"/>
       <use x="166.845703" xlink:href="#ArialMT-35"/>
       <use x="222.460938" xlink:href="#ArialMT-2d"/>
       <use x="255.761719" xlink:href="#ArialMT-31"/>
       <use x="311.376953" xlink:href="#ArialMT-32"/>
      </g>
     </g>
    </g>
    <g id="xtick_12">
     <g id="line2d_19"/>
     <g id="text_20">
      <!-- 2016-03 -->
      <g style="fill:#262626;" transform="translate(872.792779 299.449775)rotate(-30)scale(0.2 -0.2)">
       <use xlink:href="#ArialMT-32"/>
       <use x="55.615234" xlink:href="#ArialMT-30"/>
       <use x="111.230469" xlink:href="#ArialMT-31"/>
       <use x="166.845703" xlink:href="#ArialMT-36"/>
       <use x="222.460938" xlink:href="#ArialMT-2d"/>
       <use x="255.761719" xlink:href="#ArialMT-30"/>
       <use x="311.376953" xlink:href="#ArialMT-33"/>
      </g>
     </g>
    </g>
    <g id="xtick_13">
     <g id="line2d_20"/>
     <g id="text_21">
      <!-- 2016-06 -->
      <g style="fill:#262626;" transform="translate(949.322102 299.449775)rotate(-30)scale(0.2 -0.2)">
       <use xlink:href="#ArialMT-32"/>
       <use x="55.615234" xlink:href="#ArialMT-30"/>
       <use x="111.230469" xlink:href="#ArialMT-31"/>
       <use x="166.845703" xlink:href="#ArialMT-36"/>
       <use x="222.460938" xlink:href="#ArialMT-2d"/>
       <use x="255.761719" xlink:href="#ArialMT-30"/>
       <use x="311.376953" xlink:href="#ArialMT-36"/>
      </g>
     </g>
    </g>
    <g id="xtick_14">
     <g id="line2d_21"/>
     <g id="text_22">
      <!-- 2016-09 -->
      <g style="fill:#262626;" transform="translate(1025.851426 299.449775)rotate(-30)scale(0.2 -0.2)">
       <use xlink:href="#ArialMT-32"/>
       <use x="55.615234" xlink:href="#ArialMT-30"/>
       <use x="111.230469" xlink:href="#ArialMT-31"/>
       <use x="166.845703" xlink:href="#ArialMT-36"/>
       <use x="222.460938" xlink:href="#ArialMT-2d"/>
       <use x="255.761719" xlink:href="#ArialMT-30"/>
       <use x="311.376953" xlink:href="#ArialMT-39"/>
      </g>
     </g>
    </g>
    <g id="xtick_15">
     <g id="line2d_22"/>
     <g id="text_23">
      <!-- 2016-12 -->
      <g style="fill:#262626;" transform="translate(1101.548909 299.449775)rotate(-30)scale(0.2 -0.2)">
       <use xlink:href="#ArialMT-32"/>
       <use x="55.615234" xlink:href="#ArialMT-30"/>
       <use x="111.230469" xlink:href="#ArialMT-31"/>
       <use x="166.845703" xlink:href="#ArialMT-36"/>
       <use x="222.460938" xlink:href="#ArialMT-2d"/>
       <use x="255.761719" xlink:href="#ArialMT-31"/>
       <use x="311.376953" xlink:href="#ArialMT-32"/>
      </g>
     </g>
    </g>
    <g id="xtick_16">
     <g id="line2d_23"/>
     <g id="text_24">
      <!-- 2017-03 -->
      <g style="fill:#262626;" transform="translate(1176.414551 299.449775)rotate(-30)scale(0.2 -0.2)">
       <use xlink:href="#ArialMT-32"/>
       <use x="55.615234" xlink:href="#ArialMT-30"/>
       <use x="111.230469" xlink:href="#ArialMT-31"/>
       <use x="166.845703" xlink:href="#ArialMT-37"/>
       <use x="222.460938" xlink:href="#ArialMT-2d"/>
       <use x="255.761719" xlink:href="#ArialMT-30"/>
       <use x="311.376953" xlink:href="#ArialMT-33"/>
      </g>
     </g>
    </g>
    <g id="xtick_17">
     <g id="line2d_24"/>
     <g id="text_25">
      <!-- 2017-06 -->
      <g style="fill:#262626;" transform="translate(1252.943875 299.449775)rotate(-30)scale(0.2 -0.2)">
       <use xlink:href="#ArialMT-32"/>
       <use x="55.615234" xlink:href="#ArialMT-30"/>
       <use x="111.230469" xlink:href="#ArialMT-31"/>
       <use x="166.845703" xlink:href="#ArialMT-37"/>
       <use x="222.460938" xlink:href="#ArialMT-2d"/>
       <use x="255.761719" xlink:href="#ArialMT-30"/>
       <use x="311.376953" xlink:href="#ArialMT-36"/>
      </g>
     </g>
    </g>
    <g id="xtick_18">
     <g id="line2d_25"/>
     <g id="text_26">
      <!-- 2017-09 -->
      <g style="fill:#262626;" transform="translate(1329.473198 299.449775)rotate(-30)scale(0.2 -0.2)">
       <use xlink:href="#ArialMT-32"/>
       <use x="55.615234" xlink:href="#ArialMT-30"/>
       <use x="111.230469" xlink:href="#ArialMT-31"/>
       <use x="166.845703" xlink:href="#ArialMT-37"/>
       <use x="222.460938" xlink:href="#ArialMT-2d"/>
       <use x="255.761719" xlink:href="#ArialMT-30"/>
       <use x="311.376953" xlink:href="#ArialMT-39"/>
      </g>
     </g>
    </g>
    <g id="text_27">
     <!-- Date of Purchase -->
     <g style="fill:#262626;" transform="translate(1005.99412 322.639413)scale(0.22 -0.22)">
      <use xlink:href="#ArialMT-44"/>
      <use x="72.216797" xlink:href="#ArialMT-61"/>
      <use x="127.832031" xlink:href="#ArialMT-74"/>
      <use x="155.615234" xlink:href="#ArialMT-65"/>
      <use x="211.230469" xlink:href="#ArialMT-20"/>
      <use x="239.013672" xlink:href="#ArialMT-6f"/>
      <use x="294.628906" xlink:href="#ArialMT-66"/>
      <use x="322.412109" xlink:href="#ArialMT-20"/>
      <use x="350.195312" xlink:href="#ArialMT-50"/>
      <use x="416.894531" xlink:href="#ArialMT-75"/>
      <use x="472.509766" xlink:href="#ArialMT-72"/>
      <use x="505.810547" xlink:href="#ArialMT-63"/>
      <use x="555.810547" xlink:href="#ArialMT-68"/>
      <use x="611.425781" xlink:href="#ArialMT-61"/>
      <use x="667.041016" xlink:href="#ArialMT-73"/>
      <use x="717.041016" xlink:href="#ArialMT-65"/>
     </g>
    </g>
   </g>
   <g id="matplotlib.axis_4">
    <g id="ytick_6">
     <g id="line2d_26"/>
     <g id="text_28">
      <!-- 0 -->
      <g style="fill:#262626;" transform="translate(768.821583 240.833761)scale(0.2 -0.2)">
       <use xlink:href="#ArialMT-30"/>
      </g>
     </g>
    </g>
    <g id="ytick_7">
     <g id="line2d_27"/>
     <g id="text_29">
      <!-- 50 -->
      <g style="fill:#262626;" transform="translate(757.699708 161.482786)scale(0.2 -0.2)">
       <use xlink:href="#ArialMT-35"/>
       <use x="55.615234" xlink:href="#ArialMT-30"/>
      </g>
     </g>
    </g>
    <g id="ytick_8">
     <g id="line2d_28"/>
     <g id="text_30">
      <!-- 100 -->
      <g style="fill:#262626;" transform="translate(746.577833 82.131811)scale(0.2 -0.2)">
       <use xlink:href="#ArialMT-31"/>
       <use x="55.615234" xlink:href="#ArialMT-30"/>
       <use x="111.230469" xlink:href="#ArialMT-30"/>
      </g>
     </g>
    </g>
    <g id="text_31">
     <!-- Cumulative vehicles sold -->
     <g style="fill:#262626;" transform="translate(738.205333 257.915884)rotate(-90)scale(0.22 -0.22)">
      <use xlink:href="#ArialMT-43"/>
      <use x="72.216797" xlink:href="#ArialMT-75"/>
      <use x="127.832031" xlink:href="#ArialMT-6d"/>
      <use x="211.132812" xlink:href="#ArialMT-75"/>
      <use x="266.748047" xlink:href="#ArialMT-6c"/>
      <use x="288.964844" xlink:href="#ArialMT-61"/>
      <use x="344.580078" xlink:href="#ArialMT-74"/>
      <use x="372.363281" xlink:href="#ArialMT-69"/>
      <use x="394.580078" xlink:href="#ArialMT-76"/>
      <use x="444.580078" xlink:href="#ArialMT-65"/>
      <use x="500.195312" xlink:href="#ArialMT-20"/>
      <use x="527.978516" xlink:href="#ArialMT-76"/>
      <use x="577.978516" xlink:href="#ArialMT-65"/>
      <use x="633.59375" xlink:href="#ArialMT-68"/>
      <use x="689.208984" xlink:href="#ArialMT-69"/>
      <use x="711.425781" xlink:href="#ArialMT-63"/>
      <use x="761.425781" xlink:href="#ArialMT-6c"/>
      <use x="783.642578" xlink:href="#ArialMT-65"/>
      <use x="839.257812" xlink:href="#ArialMT-73"/>
      <use x="889.257812" xlink:href="#ArialMT-20"/>
      <use x="917.041016" xlink:href="#ArialMT-73"/>
      <use x="967.041016" xlink:href="#ArialMT-6f"/>
      <use x="1022.65625" xlink:href="#ArialMT-6c"/>
      <use x="1044.873047" xlink:href="#ArialMT-64"/>
     </g>
    </g>
   </g>
   <g id="line2d_29">
    <path clip-path="url(#pfb578c5814)" d="M 749.510637 233.675948 
L 752.837999 232.088929 
L 765.315606 230.501909 
L 783.616096 228.91489 
L 798.589225 227.32787 
L 804.412108 225.740851 
L 805.243949 224.153831 
L 809.403151 222.566812 
L 810.234991 220.979792 
L 811.066832 219.392773 
L 831.031003 216.218734 
L 859.313579 214.631714 
L 861.809101 213.044695 
L 867.631984 211.457675 
L 868.463825 209.870656 
L 875.950389 208.283636 
L 883.436953 206.696617 
L 890.923517 205.109597 
L 921.701615 203.522578 
L 931.683701 201.935558 
L 942.497627 200.348539 
L 960.798117 198.761519 
L 962.461798 197.1745 
L 972.443884 195.58748 
L 975.771246 194.000461 
L 978.266767 192.413441 
L 982.425969 190.826422 
L 985.753331 189.239402 
L 996.567257 187.652383 
L 1004.885662 186.065363 
L 1017.363269 182.891324 
L 1021.522472 181.304305 
L 1023.186153 178.130266 
L 1030.672717 176.543246 
L 1031.504557 174.956227 
L 1034.000079 173.369207 
L 1036.4956 171.782188 
L 1038.991122 170.195168 
L 1040.654803 168.608149 
L 1050.636888 167.021129 
L 1052.300569 165.43411 
L 1053.13241 163.84709 
L 1075.592102 162.260071 
L 1077.255783 160.673051 
L 1093.060752 159.086032 
L 1094.724433 157.499012 
L 1098.051795 155.911993 
L 1100.547317 154.324973 
L 1104.706519 152.737954 
L 1107.20204 151.150934 
L 1113.856764 149.563915 
L 1114.688605 146.389876 
L 1115.520445 144.802856 
L 1116.352286 143.215837 
L 1118.847807 141.628817 
L 1124.67069 140.041798 
L 1127.166212 138.454778 
L 1137.148297 136.867759 
L 1155.448788 135.280739 
L 1166.262714 133.69372 
L 1168.758235 132.1067 
L 1177.908481 130.519681 
L 1178.740321 127.345642 
L 1179.572162 125.758622 
L 1180.404002 124.171603 
L 1182.899523 122.584583 
L 1183.731364 120.997564 
L 1184.563204 119.410544 
L 1185.395045 117.823525 
L 1187.890566 114.649486 
L 1188.722407 113.062466 
L 1190.386088 111.475447 
L 1191.217928 109.888427 
L 1192.049769 108.301408 
L 1199.536333 105.127369 
L 1200.368173 103.540349 
L 1218.668664 101.95333 
L 1221.164185 100.36631 
L 1224.491547 98.779291 
L 1244.455718 97.192271 
L 1247.78308 95.605252 
L 1252.774123 94.018232 
L 1266.915411 92.431213 
L 1267.747252 90.844193 
L 1269.410933 89.257174 
L 1272.738295 87.670154 
L 1282.72038 86.083135 
L 1288.543264 84.496115 
L 1291.038785 82.909096 
L 1300.18903 81.322076 
L 1301.020871 79.735057 
L 1310.171116 78.148037 
L 1311.002956 76.561018 
L 1325.144244 73.386979 
L 1327.639766 71.799959 
L 1328.471606 70.21294 
L 1333.462649 68.62592 
L 1334.29449 65.451881 
L 1335.12633 63.864862 
L 1335.958171 62.277842 
L 1336.790011 60.690823 
L 1342.612894 57.516784 
L 1349.267618 55.929764 
L 1350.931299 54.342744 
L 1357.586023 51.168705 
L 1359.249704 49.581686 
L 1363.408906 47.994666 
L 1368.399949 46.407647 
L 1373.390992 44.820627 
L 1377.550194 43.233608 
L 1394.187004 41.646588 
L 1403.218844 40.785023 
" style="fill:none;stroke:#4c72b0;stroke-linecap:round;stroke-width:1.75;"/>
   </g>
   <g id="line2d_30">
    <path clip-path="url(#pfb578c5814)" d="M 1142.13934 243.356767 
L 1142.13934 30.37875 
" style="fill:none;stroke:#ff0000;stroke-dasharray:6.475,2.8;stroke-dashoffset:0;stroke-width:1.75;"/>
   </g>
   <g id="patch_8">
    <path d="M 786.943458 243.356767 
L 786.943458 30.37875 
" style="fill:none;"/>
   </g>
   <g id="patch_9">
    <path d="M 1395.018844 243.356767 
L 1395.018844 30.37875 
" style="fill:none;"/>
   </g>
   <g id="patch_10">
    <path d="M 786.943458 243.356767 
L 1395.018844 243.356767 
" style="fill:none;"/>
   </g>
   <g id="patch_11">
    <path d="M 786.943458 30.37875 
L 1395.018844 30.37875 
" style="fill:none;"/>
   </g>
   <g id="text_32">
    <!-- Electric Vehicles -->
    <defs>
     <path d="M 7.90625 0 
L 7.90625 71.578125 
L 59.671875 71.578125 
L 59.671875 63.140625 
L 17.390625 63.140625 
L 17.390625 41.21875 
L 56.984375 41.21875 
L 56.984375 32.8125 
L 17.390625 32.8125 
L 17.390625 8.453125 
L 61.328125 8.453125 
L 61.328125 0 
z
" id="ArialMT-45"/>
     <path d="M 28.171875 0 
L 0.4375 71.578125 
L 10.6875 71.578125 
L 29.296875 19.578125 
Q 31.546875 13.328125 33.0625 7.859375 
Q 34.71875 13.71875 36.921875 19.578125 
L 56.25 71.578125 
L 65.921875 71.578125 
L 37.890625 0 
z
" id="ArialMT-56"/>
    </defs>
    <g style="fill:#262626;" transform="translate(1002.961151 24.37875)scale(0.24 -0.24)">
     <use xlink:href="#ArialMT-45"/>
     <use x="66.699219" xlink:href="#ArialMT-6c"/>
     <use x="88.916016" xlink:href="#ArialMT-65"/>
     <use x="144.53125" xlink:href="#ArialMT-63"/>
     <use x="194.53125" xlink:href="#ArialMT-74"/>
     <use x="222.314453" xlink:href="#ArialMT-72"/>
     <use x="255.615234" xlink:href="#ArialMT-69"/>
     <use x="277.832031" xlink:href="#ArialMT-63"/>
     <use x="327.832031" xlink:href="#ArialMT-20"/>
     <use x="355.615234" xlink:href="#ArialMT-56"/>
     <use x="422.236328" xlink:href="#ArialMT-65"/>
     <use x="477.851562" xlink:href="#ArialMT-68"/>
     <use x="533.466797" xlink:href="#ArialMT-69"/>
     <use x="555.683594" xlink:href="#ArialMT-63"/>
     <use x="605.683594" xlink:href="#ArialMT-6c"/>
     <use x="627.900391" xlink:href="#ArialMT-65"/>
     <use x="683.515625" xlink:href="#ArialMT-73"/>
    </g>
   </g>
  </g>
  <g id="axes_3">
   <g id="patch_12">
    <path d="M 79.903458 590.396767 
L 687.978844 590.396767 
L 687.978844 377.41875 
L 79.903458 377.41875 
z
" style="fill:#eaeaf2;"/>
   </g>
   <g id="matplotlib.axis_5">
    <g id="xtick_19">
     <g id="line2d_31"/>
     <g id="text_33">
      <!-- 2015-09 -->
      <g style="fill:#262626;" transform="translate(14.357813 646.489775)rotate(-30)scale(0.2 -0.2)">
       <use xlink:href="#ArialMT-32"/>
       <use x="55.615234" xlink:href="#ArialMT-30"/>
       <use x="111.230469" xlink:href="#ArialMT-31"/>
       <use x="166.845703" xlink:href="#ArialMT-35"/>
       <use x="222.460938" xlink:href="#ArialMT-2d"/>
       <use x="255.761719" xlink:href="#ArialMT-30"/>
       <use x="311.376953" xlink:href="#ArialMT-39"/>
      </g>
     </g>
    </g>
    <g id="xtick_20">
     <g id="line2d_32"/>
     <g id="text_34">
      <!-- 2015-12 -->
      <g style="fill:#262626;" transform="translate(90.055296 646.489775)rotate(-30)scale(0.2 -0.2)">
       <use xlink:href="#ArialMT-32"/>
       <use x="55.615234" xlink:href="#ArialMT-30"/>
       <use x="111.230469" xlink:href="#ArialMT-31"/>
       <use x="166.845703" xlink:href="#ArialMT-35"/>
       <use x="222.460938" xlink:href="#ArialMT-2d"/>
       <use x="255.761719" xlink:href="#ArialMT-31"/>
       <use x="311.376953" xlink:href="#ArialMT-32"/>
      </g>
     </g>
    </g>
    <g id="xtick_21">
     <g id="line2d_33"/>
     <g id="text_35">
      <!-- 2016-03 -->
      <g style="fill:#262626;" transform="translate(165.752779 646.489775)rotate(-30)scale(0.2 -0.2)">
       <use xlink:href="#ArialMT-32"/>
       <use x="55.615234" xlink:href="#ArialMT-30"/>
       <use x="111.230469" xlink:href="#ArialMT-31"/>
       <use x="166.845703" xlink:href="#ArialMT-36"/>
       <use x="222.460938" xlink:href="#ArialMT-2d"/>
       <use x="255.761719" xlink:href="#ArialMT-30"/>
       <use x="311.376953" xlink:href="#ArialMT-33"/>
      </g>
     </g>
    </g>
    <g id="xtick_22">
     <g id="line2d_34"/>
     <g id="text_36">
      <!-- 2016-06 -->
      <g style="fill:#262626;" transform="translate(242.282102 646.489775)rotate(-30)scale(0.2 -0.2)">
       <use xlink:href="#ArialMT-32"/>
       <use x="55.615234" xlink:href="#ArialMT-30"/>
       <use x="111.230469" xlink:href="#ArialMT-31"/>
       <use x="166.845703" xlink:href="#ArialMT-36"/>
       <use x="222.460938" xlink:href="#ArialMT-2d"/>
       <use x="255.761719" xlink:href="#ArialMT-30"/>
       <use x="311.376953" xlink:href="#ArialMT-36"/>
      </g>
     </g>
    </g>
    <g id="xtick_23">
     <g id="line2d_35"/>
     <g id="text_37">
      <!-- 2016-09 -->
      <g style="fill:#262626;" transform="translate(318.811426 646.489775)rotate(-30)scale(0.2 -0.2)">
       <use xlink:href="#ArialMT-32"/>
       <use x="55.615234" xlink:href="#ArialMT-30"/>
       <use x="111.230469" xlink:href="#ArialMT-31"/>
       <use x="166.845703" xlink:href="#ArialMT-36"/>
       <use x="222.460938" xlink:href="#ArialMT-2d"/>
       <use x="255.761719" xlink:href="#ArialMT-30"/>
       <use x="311.376953" xlink:href="#ArialMT-39"/>
      </g>
     </g>
    </g>
    <g id="xtick_24">
     <g id="line2d_36"/>
     <g id="text_38">
      <!-- 2016-12 -->
      <g style="fill:#262626;" transform="translate(394.508909 646.489775)rotate(-30)scale(0.2 -0.2)">
       <use xlink:href="#ArialMT-32"/>
       <use x="55.615234" xlink:href="#ArialMT-30"/>
       <use x="111.230469" xlink:href="#ArialMT-31"/>
       <use x="166.845703" xlink:href="#ArialMT-36"/>
       <use x="222.460938" xlink:href="#ArialMT-2d"/>
       <use x="255.761719" xlink:href="#ArialMT-31"/>
       <use x="311.376953" xlink:href="#ArialMT-32"/>
      </g>
     </g>
    </g>
    <g id="xtick_25">
     <g id="line2d_37"/>
     <g id="text_39">
      <!-- 2017-03 -->
      <g style="fill:#262626;" transform="translate(469.374551 646.489775)rotate(-30)scale(0.2 -0.2)">
       <use xlink:href="#ArialMT-32"/>
       <use x="55.615234" xlink:href="#ArialMT-30"/>
       <use x="111.230469" xlink:href="#ArialMT-31"/>
       <use x="166.845703" xlink:href="#ArialMT-37"/>
       <use x="222.460938" xlink:href="#ArialMT-2d"/>
       <use x="255.761719" xlink:href="#ArialMT-30"/>
       <use x="311.376953" xlink:href="#ArialMT-33"/>
      </g>
     </g>
    </g>
    <g id="xtick_26">
     <g id="line2d_38"/>
     <g id="text_40">
      <!-- 2017-06 -->
      <g style="fill:#262626;" transform="translate(545.903875 646.489775)rotate(-30)scale(0.2 -0.2)">
       <use xlink:href="#ArialMT-32"/>
       <use x="55.615234" xlink:href="#ArialMT-30"/>
       <use x="111.230469" xlink:href="#ArialMT-31"/>
       <use x="166.845703" xlink:href="#ArialMT-37"/>
       <use x="222.460938" xlink:href="#ArialMT-2d"/>
       <use x="255.761719" xlink:href="#ArialMT-30"/>
       <use x="311.376953" xlink:href="#ArialMT-36"/>
      </g>
     </g>
    </g>
    <g id="xtick_27">
     <g id="line2d_39"/>
     <g id="text_41">
      <!-- 2017-09 -->
      <g style="fill:#262626;" transform="translate(622.433198 646.489775)rotate(-30)scale(0.2 -0.2)">
       <use xlink:href="#ArialMT-32"/>
       <use x="55.615234" xlink:href="#ArialMT-30"/>
       <use x="111.230469" xlink:href="#ArialMT-31"/>
       <use x="166.845703" xlink:href="#ArialMT-37"/>
       <use x="222.460938" xlink:href="#ArialMT-2d"/>
       <use x="255.761719" xlink:href="#ArialMT-30"/>
       <use x="311.376953" xlink:href="#ArialMT-39"/>
      </g>
     </g>
    </g>
    <g id="text_42">
     <!-- Date of Purchase -->
     <g style="fill:#262626;" transform="translate(298.95412 669.679413)scale(0.22 -0.22)">
      <use xlink:href="#ArialMT-44"/>
      <use x="72.216797" xlink:href="#ArialMT-61"/>
      <use x="127.832031" xlink:href="#ArialMT-74"/>
      <use x="155.615234" xlink:href="#ArialMT-65"/>
      <use x="211.230469" xlink:href="#ArialMT-20"/>
      <use x="239.013672" xlink:href="#ArialMT-6f"/>
      <use x="294.628906" xlink:href="#ArialMT-66"/>
      <use x="322.412109" xlink:href="#ArialMT-20"/>
      <use x="350.195312" xlink:href="#ArialMT-50"/>
      <use x="416.894531" xlink:href="#ArialMT-75"/>
      <use x="472.509766" xlink:href="#ArialMT-72"/>
      <use x="505.810547" xlink:href="#ArialMT-63"/>
      <use x="555.810547" xlink:href="#ArialMT-68"/>
      <use x="611.425781" xlink:href="#ArialMT-61"/>
      <use x="667.041016" xlink:href="#ArialMT-73"/>
      <use x="717.041016" xlink:href="#ArialMT-65"/>
     </g>
    </g>
   </g>
   <g id="matplotlib.axis_6">
    <g id="ytick_9">
     <g id="line2d_40"/>
     <g id="text_43">
      <!-- 0 -->
      <g style="fill:#262626;" transform="translate(61.781583 587.873761)scale(0.2 -0.2)">
       <use xlink:href="#ArialMT-30"/>
      </g>
     </g>
    </g>
    <g id="ytick_10">
     <g id="line2d_41"/>
     <g id="text_44">
      <!-- 20 -->
      <g style="fill:#262626;" transform="translate(50.659708 513.405923)scale(0.2 -0.2)">
       <use xlink:href="#ArialMT-32"/>
       <use x="55.615234" xlink:href="#ArialMT-30"/>
      </g>
     </g>
    </g>
    <g id="ytick_11">
     <g id="line2d_42"/>
     <g id="text_45">
      <!-- 40 -->
      <g style="fill:#262626;" transform="translate(50.659708 438.938084)scale(0.2 -0.2)">
       <use xlink:href="#ArialMT-34"/>
       <use x="55.615234" xlink:href="#ArialMT-30"/>
      </g>
     </g>
    </g>
    <g id="text_46">
     <!-- Cumulative vehicles sold -->
     <g style="fill:#262626;" transform="translate(42.287208 604.955884)rotate(-90)scale(0.22 -0.22)">
      <use xlink:href="#ArialMT-43"/>
      <use x="72.216797" xlink:href="#ArialMT-75"/>
      <use x="127.832031" xlink:href="#ArialMT-6d"/>
      <use x="211.132812" xlink:href="#ArialMT-75"/>
      <use x="266.748047" xlink:href="#ArialMT-6c"/>
      <use x="288.964844" xlink:href="#ArialMT-61"/>
      <use x="344.580078" xlink:href="#ArialMT-74"/>
      <use x="372.363281" xlink:href="#ArialMT-69"/>
      <use x="394.580078" xlink:href="#ArialMT-76"/>
      <use x="444.580078" xlink:href="#ArialMT-65"/>
      <use x="500.195312" xlink:href="#ArialMT-20"/>
      <use x="527.978516" xlink:href="#ArialMT-76"/>
      <use x="577.978516" xlink:href="#ArialMT-65"/>
      <use x="633.59375" xlink:href="#ArialMT-68"/>
      <use x="689.208984" xlink:href="#ArialMT-69"/>
      <use x="711.425781" xlink:href="#ArialMT-63"/>
      <use x="761.425781" xlink:href="#ArialMT-6c"/>
      <use x="783.642578" xlink:href="#ArialMT-65"/>
      <use x="839.257812" xlink:href="#ArialMT-73"/>
      <use x="889.257812" xlink:href="#ArialMT-20"/>
      <use x="917.041016" xlink:href="#ArialMT-73"/>
      <use x="967.041016" xlink:href="#ArialMT-6f"/>
      <use x="1022.65625" xlink:href="#ArialMT-6c"/>
      <use x="1044.873047" xlink:href="#ArialMT-64"/>
     </g>
    </g>
   </g>
   <g id="line2d_43">
    <path clip-path="url(#p5975e4bfc3)" d="M 42.470637 580.715948 
L 45.797999 576.992556 
L 58.275606 573.269165 
L 76.576096 569.545773 
L 104.026832 565.822381 
L 123.991003 562.098989 
L 168.910389 558.375597 
L 176.396953 554.652205 
L 183.883517 550.928813 
L 235.457627 547.205421 
L 297.845662 543.482029 
L 314.482472 536.035245 
L 324.464557 532.311854 
L 333.614803 528.588462 
L 387.684433 524.86507 
L 406.816764 521.141678 
L 409.312286 517.418286 
L 411.807807 513.694894 
L 448.408788 509.971502 
L 461.718235 506.24811 
L 471.700321 502.524718 
L 492.496333 498.801326 
L 493.328173 495.077934 
L 514.124185 491.354542 
L 537.415718 487.631151 
L 559.875411 483.907759 
L 560.707252 480.184367 
L 562.370933 476.460975 
L 575.68038 472.737583 
L 581.503264 469.014191 
L 583.998785 465.290799 
L 593.980871 461.567407 
L 603.131116 457.844015 
L 603.962956 454.120623 
L 620.599766 446.67384 
L 621.431606 442.950448 
L 626.422649 439.227056 
L 627.25449 435.503664 
L 629.750011 431.780272 
L 635.572894 424.333488 
L 642.227618 420.610096 
L 643.891299 416.886704 
L 650.546023 409.43992 
L 652.209704 405.716529 
L 656.368906 401.993137 
L 661.359949 398.269745 
L 670.510194 394.546353 
L 687.147004 390.822961 
L 703.783813 387.099569 
" style="fill:none;stroke:#4c72b0;stroke-linecap:round;stroke-width:1.75;"/>
   </g>
   <g id="line2d_44">
    <path clip-path="url(#p5975e4bfc3)" d="M 435.09934 590.396767 
L 435.09934 377.41875 
" style="fill:none;stroke:#ff0000;stroke-dasharray:6.475,2.8;stroke-dashoffset:0;stroke-width:1.75;"/>
   </g>
   <g id="patch_13">
    <path d="M 79.903458 590.396767 
L 79.903458 377.41875 
" style="fill:none;"/>
   </g>
   <g id="patch_14">
    <path d="M 687.978844 590.396767 
L 687.978844 377.41875 
" style="fill:none;"/>
   </g>
   <g id="patch_15">
    <path d="M 79.903458 590.396767 
L 687.978844 590.396767 
" style="fill:none;"/>
   </g>
   <g id="patch_16">
    <path d="M 79.903458 377.41875 
L 687.978844 377.41875 
" style="fill:none;"/>
   </g>
   <g id="text_47">
    <!-- Non-Tesla Electric Vehicles -->
    <defs>
     <path d="M 7.625 0 
L 7.625 71.578125 
L 17.328125 71.578125 
L 54.9375 15.375 
L 54.9375 71.578125 
L 64.015625 71.578125 
L 64.015625 0 
L 54.296875 0 
L 16.703125 56.25 
L 16.703125 0 
z
" id="ArialMT-4e"/>
     <path d="M 25.921875 0 
L 25.921875 63.140625 
L 2.34375 63.140625 
L 2.34375 71.578125 
L 59.078125 71.578125 
L 59.078125 63.140625 
L 35.40625 63.140625 
L 35.40625 0 
z
" id="ArialMT-54"/>
    </defs>
    <g style="fill:#262626;" transform="translate(237.258026 371.41875)scale(0.24 -0.24)">
     <use xlink:href="#ArialMT-4e"/>
     <use x="72.216797" xlink:href="#ArialMT-6f"/>
     <use x="127.832031" xlink:href="#ArialMT-6e"/>
     <use x="183.447266" xlink:href="#ArialMT-2d"/>
     <use x="216.748047" xlink:href="#ArialMT-54"/>
     <use x="277.660156" xlink:href="#ArialMT-65"/>
     <use x="333.275391" xlink:href="#ArialMT-73"/>
     <use x="383.275391" xlink:href="#ArialMT-6c"/>
     <use x="405.492188" xlink:href="#ArialMT-61"/>
     <use x="461.107422" xlink:href="#ArialMT-20"/>
     <use x="488.890625" xlink:href="#ArialMT-45"/>
     <use x="555.589844" xlink:href="#ArialMT-6c"/>
     <use x="577.806641" xlink:href="#ArialMT-65"/>
     <use x="633.421875" xlink:href="#ArialMT-63"/>
     <use x="683.421875" xlink:href="#ArialMT-74"/>
     <use x="711.205078" xlink:href="#ArialMT-72"/>
     <use x="744.505859" xlink:href="#ArialMT-69"/>
     <use x="766.722656" xlink:href="#ArialMT-63"/>
     <use x="816.722656" xlink:href="#ArialMT-20"/>
     <use x="844.505859" xlink:href="#ArialMT-56"/>
     <use x="911.126953" xlink:href="#ArialMT-65"/>
     <use x="966.742188" xlink:href="#ArialMT-68"/>
     <use x="1022.357422" xlink:href="#ArialMT-69"/>
     <use x="1044.574219" xlink:href="#ArialMT-63"/>
     <use x="1094.574219" xlink:href="#ArialMT-6c"/>
     <use x="1116.791016" xlink:href="#ArialMT-65"/>
     <use x="1172.40625" xlink:href="#ArialMT-73"/>
    </g>
   </g>
  </g>
  <g id="axes_4">
   <g id="patch_17">
    <path d="M 786.943458 590.396767 
L 1395.018844 590.396767 
L 1395.018844 377.41875 
L 786.943458 377.41875 
z
" style="fill:#eaeaf2;"/>
   </g>
   <g id="matplotlib.axis_7">
    <g id="xtick_28">
     <g id="line2d_45"/>
     <g id="text_48">
      <!-- 2015-09 -->
      <g style="fill:#262626;" transform="translate(721.397812 646.489775)rotate(-30)scale(0.2 -0.2)">
       <use xlink:href="#ArialMT-32"/>
       <use x="55.615234" xlink:href="#ArialMT-30"/>
       <use x="111.230469" xlink:href="#ArialMT-31"/>
       <use x="166.845703" xlink:href="#ArialMT-35"/>
       <use x="222.460938" xlink:href="#ArialMT-2d"/>
       <use x="255.761719" xlink:href="#ArialMT-30"/>
       <use x="311.376953" xlink:href="#ArialMT-39"/>
      </g>
     </g>
    </g>
    <g id="xtick_29">
     <g id="line2d_46"/>
     <g id="text_49">
      <!-- 2015-12 -->
      <g style="fill:#262626;" transform="translate(797.095296 646.489775)rotate(-30)scale(0.2 -0.2)">
       <use xlink:href="#ArialMT-32"/>
       <use x="55.615234" xlink:href="#ArialMT-30"/>
       <use x="111.230469" xlink:href="#ArialMT-31"/>
       <use x="166.845703" xlink:href="#ArialMT-35"/>
       <use x="222.460938" xlink:href="#ArialMT-2d"/>
       <use x="255.761719" xlink:href="#ArialMT-31"/>
       <use x="311.376953" xlink:href="#ArialMT-32"/>
      </g>
     </g>
    </g>
    <g id="xtick_30">
     <g id="line2d_47"/>
     <g id="text_50">
      <!-- 2016-03 -->
      <g style="fill:#262626;" transform="translate(872.792779 646.489775)rotate(-30)scale(0.2 -0.2)">
       <use xlink:href="#ArialMT-32"/>
       <use x="55.615234" xlink:href="#ArialMT-30"/>
       <use x="111.230469" xlink:href="#ArialMT-31"/>
       <use x="166.845703" xlink:href="#ArialMT-36"/>
       <use x="222.460938" xlink:href="#ArialMT-2d"/>
       <use x="255.761719" xlink:href="#ArialMT-30"/>
       <use x="311.376953" xlink:href="#ArialMT-33"/>
      </g>
     </g>
    </g>
    <g id="xtick_31">
     <g id="line2d_48"/>
     <g id="text_51">
      <!-- 2016-06 -->
      <g style="fill:#262626;" transform="translate(949.322102 646.489775)rotate(-30)scale(0.2 -0.2)">
       <use xlink:href="#ArialMT-32"/>
       <use x="55.615234" xlink:href="#ArialMT-30"/>
       <use x="111.230469" xlink:href="#ArialMT-31"/>
       <use x="166.845703" xlink:href="#ArialMT-36"/>
       <use x="222.460938" xlink:href="#ArialMT-2d"/>
       <use x="255.761719" xlink:href="#ArialMT-30"/>
       <use x="311.376953" xlink:href="#ArialMT-36"/>
      </g>
     </g>
    </g>
    <g id="xtick_32">
     <g id="line2d_49"/>
     <g id="text_52">
      <!-- 2016-09 -->
      <g style="fill:#262626;" transform="translate(1025.851426 646.489775)rotate(-30)scale(0.2 -0.2)">
       <use xlink:href="#ArialMT-32"/>
       <use x="55.615234" xlink:href="#ArialMT-30"/>
       <use x="111.230469" xlink:href="#ArialMT-31"/>
       <use x="166.845703" xlink:href="#ArialMT-36"/>
       <use x="222.460938" xlink:href="#ArialMT-2d"/>
       <use x="255.761719" xlink:href="#ArialMT-30"/>
       <use x="311.376953" xlink:href="#ArialMT-39"/>
      </g>
     </g>
    </g>
    <g id="xtick_33">
     <g id="line2d_50"/>
     <g id="text_53">
      <!-- 2016-12 -->
      <g style="fill:#262626;" transform="translate(1101.548909 646.489775)rotate(-30)scale(0.2 -0.2)">
       <use xlink:href="#ArialMT-32"/>
       <use x="55.615234" xlink:href="#ArialMT-30"/>
       <use x="111.230469" xlink:href="#ArialMT-31"/>
       <use x="166.845703" xlink:href="#ArialMT-36"/>
       <use x="222.460938" xlink:href="#ArialMT-2d"/>
       <use x="255.761719" xlink:href="#ArialMT-31"/>
       <use x="311.376953" xlink:href="#ArialMT-32"/>
      </g>
     </g>
    </g>
    <g id="xtick_34">
     <g id="line2d_51"/>
     <g id="text_54">
      <!-- 2017-03 -->
      <g style="fill:#262626;" transform="translate(1176.414551 646.489775)rotate(-30)scale(0.2 -0.2)">
       <use xlink:href="#ArialMT-32"/>
       <use x="55.615234" xlink:href="#ArialMT-30"/>
       <use x="111.230469" xlink:href="#ArialMT-31"/>
       <use x="166.845703" xlink:href="#ArialMT-37"/>
       <use x="222.460938" xlink:href="#ArialMT-2d"/>
       <use x="255.761719" xlink:href="#ArialMT-30"/>
       <use x="311.376953" xlink:href="#ArialMT-33"/>
      </g>
     </g>
    </g>
    <g id="xtick_35">
     <g id="line2d_52"/>
     <g id="text_55">
      <!-- 2017-06 -->
      <g style="fill:#262626;" transform="translate(1252.943875 646.489775)rotate(-30)scale(0.2 -0.2)">
       <use xlink:href="#ArialMT-32"/>
       <use x="55.615234" xlink:href="#ArialMT-30"/>
       <use x="111.230469" xlink:href="#ArialMT-31"/>
       <use x="166.845703" xlink:href="#ArialMT-37"/>
       <use x="222.460938" xlink:href="#ArialMT-2d"/>
       <use x="255.761719" xlink:href="#ArialMT-30"/>
       <use x="311.376953" xlink:href="#ArialMT-36"/>
      </g>
     </g>
    </g>
    <g id="xtick_36">
     <g id="line2d_53"/>
     <g id="text_56">
      <!-- 2017-09 -->
      <g style="fill:#262626;" transform="translate(1329.473198 646.489775)rotate(-30)scale(0.2 -0.2)">
       <use xlink:href="#ArialMT-32"/>
       <use x="55.615234" xlink:href="#ArialMT-30"/>
       <use x="111.230469" xlink:href="#ArialMT-31"/>
       <use x="166.845703" xlink:href="#ArialMT-37"/>
       <use x="222.460938" xlink:href="#ArialMT-2d"/>
       <use x="255.761719" xlink:href="#ArialMT-30"/>
       <use x="311.376953" xlink:href="#ArialMT-39"/>
      </g>
     </g>
    </g>
    <g id="text_57">
     <!-- Date of Purchase -->
     <g style="fill:#262626;" transform="translate(1005.99412 669.679413)scale(0.22 -0.22)">
      <use xlink:href="#ArialMT-44"/>
      <use x="72.216797" xlink:href="#ArialMT-61"/>
      <use x="127.832031" xlink:href="#ArialMT-74"/>
      <use x="155.615234" xlink:href="#ArialMT-65"/>
      <use x="211.230469" xlink:href="#ArialMT-20"/>
      <use x="239.013672" xlink:href="#ArialMT-6f"/>
      <use x="294.628906" xlink:href="#ArialMT-66"/>
      <use x="322.412109" xlink:href="#ArialMT-20"/>
      <use x="350.195312" xlink:href="#ArialMT-50"/>
      <use x="416.894531" xlink:href="#ArialMT-75"/>
      <use x="472.509766" xlink:href="#ArialMT-72"/>
      <use x="505.810547" xlink:href="#ArialMT-63"/>
      <use x="555.810547" xlink:href="#ArialMT-68"/>
      <use x="611.425781" xlink:href="#ArialMT-61"/>
      <use x="667.041016" xlink:href="#ArialMT-73"/>
      <use x="717.041016" xlink:href="#ArialMT-65"/>
     </g>
    </g>
   </g>
   <g id="matplotlib.axis_8">
    <g id="ytick_12">
     <g id="line2d_54"/>
     <g id="text_58">
      <!-- 0 -->
      <g style="fill:#262626;" transform="translate(768.821583 587.873761)scale(0.2 -0.2)">
       <use xlink:href="#ArialMT-30"/>
      </g>
     </g>
    </g>
    <g id="ytick_13">
     <g id="line2d_55"/>
     <g id="text_59">
      <!-- 20 -->
      <g style="fill:#262626;" transform="translate(757.699708 531.753071)scale(0.2 -0.2)">
       <use xlink:href="#ArialMT-32"/>
       <use x="55.615234" xlink:href="#ArialMT-30"/>
      </g>
     </g>
    </g>
    <g id="ytick_14">
     <g id="line2d_56"/>
     <g id="text_60">
      <!-- 40 -->
      <g style="fill:#262626;" transform="translate(757.699708 475.632382)scale(0.2 -0.2)">
       <use xlink:href="#ArialMT-34"/>
       <use x="55.615234" xlink:href="#ArialMT-30"/>
      </g>
     </g>
    </g>
    <g id="ytick_15">
     <g id="line2d_57"/>
     <g id="text_61">
      <!-- 60 -->
      <g style="fill:#262626;" transform="translate(757.699708 419.511692)scale(0.2 -0.2)">
       <use xlink:href="#ArialMT-36"/>
       <use x="55.615234" xlink:href="#ArialMT-30"/>
      </g>
     </g>
    </g>
    <g id="text_62">
     <!-- Cumulative vehicles sold -->
     <g style="fill:#262626;" transform="translate(749.327208 604.955884)rotate(-90)scale(0.22 -0.22)">
      <use xlink:href="#ArialMT-43"/>
      <use x="72.216797" xlink:href="#ArialMT-75"/>
      <use x="127.832031" xlink:href="#ArialMT-6d"/>
      <use x="211.132812" xlink:href="#ArialMT-75"/>
      <use x="266.748047" xlink:href="#ArialMT-6c"/>
      <use x="288.964844" xlink:href="#ArialMT-61"/>
      <use x="344.580078" xlink:href="#ArialMT-74"/>
      <use x="372.363281" xlink:href="#ArialMT-69"/>
      <use x="394.580078" xlink:href="#ArialMT-76"/>
      <use x="444.580078" xlink:href="#ArialMT-65"/>
      <use x="500.195312" xlink:href="#ArialMT-20"/>
      <use x="527.978516" xlink:href="#ArialMT-76"/>
      <use x="577.978516" xlink:href="#ArialMT-65"/>
      <use x="633.59375" xlink:href="#ArialMT-68"/>
      <use x="689.208984" xlink:href="#ArialMT-69"/>
      <use x="711.425781" xlink:href="#ArialMT-63"/>
      <use x="761.425781" xlink:href="#ArialMT-6c"/>
      <use x="783.642578" xlink:href="#ArialMT-65"/>
      <use x="839.257812" xlink:href="#ArialMT-73"/>
      <use x="889.257812" xlink:href="#ArialMT-20"/>
      <use x="917.041016" xlink:href="#ArialMT-73"/>
      <use x="967.041016" xlink:href="#ArialMT-6f"/>
      <use x="1022.65625" xlink:href="#ArialMT-6c"/>
      <use x="1044.873047" xlink:href="#ArialMT-64"/>
     </g>
    </g>
   </g>
   <g id="line2d_58">
    <path clip-path="url(#p407177bdbc)" d="M 798.589225 580.715948 
L 804.412108 577.909914 
L 805.243949 575.103879 
L 809.403151 572.297845 
L 810.234991 569.49181 
L 811.066832 566.685776 
L 859.313579 563.879741 
L 861.809101 561.073707 
L 867.631984 558.267672 
L 868.463825 555.461638 
L 921.701615 552.655604 
L 931.683701 549.849569 
L 960.798117 547.043535 
L 962.461798 544.2375 
L 972.443884 541.431466 
L 975.771246 538.625431 
L 978.266767 535.819397 
L 982.425969 533.013362 
L 985.753331 530.207328 
L 996.567257 527.401293 
L 1017.363269 524.595259 
L 1021.522472 521.789224 
L 1023.186153 518.98319 
L 1030.672717 516.177155 
L 1034.000079 513.371121 
L 1036.4956 510.565086 
L 1038.991122 507.759052 
L 1050.636888 504.953017 
L 1052.300569 502.146983 
L 1053.13241 499.340948 
L 1075.592102 496.534914 
L 1077.255783 493.728879 
L 1093.060752 490.922845 
L 1098.051795 488.11681 
L 1100.547317 485.310776 
L 1104.706519 482.504741 
L 1107.20204 479.698707 
L 1113.856764 476.892672 
L 1114.688605 474.086638 
L 1115.520445 471.280603 
L 1124.67069 468.474569 
L 1127.166212 465.668535 
L 1137.148297 462.8625 
L 1166.262714 460.056466 
L 1177.908481 457.250431 
L 1179.572162 451.638362 
L 1180.404002 448.832328 
L 1182.899523 446.026293 
L 1183.731364 443.220259 
L 1184.563204 440.414224 
L 1185.395045 437.60819 
L 1187.890566 431.996121 
L 1188.722407 429.190086 
L 1190.386088 426.384052 
L 1191.217928 423.578017 
L 1192.049769 420.771983 
L 1218.668664 415.159914 
L 1224.491547 412.353879 
L 1247.78308 409.547845 
L 1252.774123 406.74181 
L 1272.738295 403.935776 
L 1300.18903 401.129741 
L 1325.144244 398.323707 
L 1333.462649 395.517672 
L 1335.12633 392.711638 
L 1335.958171 389.905603 
L 1373.390992 387.099569 
" style="fill:none;stroke:#4c72b0;stroke-linecap:round;stroke-width:1.75;"/>
   </g>
   <g id="line2d_59">
    <path clip-path="url(#p407177bdbc)" d="M 1142.13934 590.396767 
L 1142.13934 377.41875 
" style="fill:none;stroke:#ff0000;stroke-dasharray:6.475,2.8;stroke-dashoffset:0;stroke-width:1.75;"/>
   </g>
   <g id="patch_18">
    <path d="M 786.943458 590.396767 
L 786.943458 377.41875 
" style="fill:none;"/>
   </g>
   <g id="patch_19">
    <path d="M 1395.018844 590.396767 
L 1395.018844 377.41875 
" style="fill:none;"/>
   </g>
   <g id="patch_20">
    <path d="M 786.943458 590.396767 
L 1395.018844 590.396767 
" style="fill:none;"/>
   </g>
   <g id="patch_21">
    <path d="M 786.943458 377.41875 
L 1395.018844 377.41875 
" style="fill:none;"/>
   </g>
   <g id="text_63">
    <!-- Teslas -->
    <g style="fill:#262626;" transform="translate(1055.659901 371.41875)scale(0.24 -0.24)">
     <use xlink:href="#ArialMT-54"/>
     <use x="60.912109" xlink:href="#ArialMT-65"/>
     <use x="116.527344" xlink:href="#ArialMT-73"/>
     <use x="166.527344" xlink:href="#ArialMT-6c"/>
     <use x="188.744141" xlink:href="#ArialMT-61"/>
     <use x="244.359375" xlink:href="#ArialMT-73"/>
    </g>
   </g>
  </g>
 </g>
 <defs>
  <clipPath id="p82b28c3159">
   <rect height="212.978017" width="608.075386" x="79.903458" y="30.37875"/>
  </clipPath>
  <clipPath id="pfb578c5814">
   <rect height="212.978017" width="608.075386" x="786.943458" y="30.37875"/>
  </clipPath>
  <clipPath id="p5975e4bfc3">
   <rect height="212.978017" width="608.075386" x="79.903458" y="377.41875"/>
  </clipPath>
  <clipPath id="p407177bdbc">
   <rect height="212.978017" width="608.075386" x="786.943458" y="377.41875"/>
  </clipPath>
 </defs>
</svg>
